<svg xmlns="http://www.w3.org/2000/svg" fill="none" viewBox="0 0 1632 700" height="700" width="1632">
<rect fill="#1C1C1C" height="700" width="1632"></rect>
<rect fill="#2851E7" transform="rotate(10.2083 812.779 182.001)" rx="60" height="264.903" width="264.903" y="182.001" x="812.779"></rect>
<path stroke-width="11.3336" stroke="white" d="M858.558 362.453L870.825 294.34L985.169 280.744L960.972 415.089L858.558 362.453Z"></path>
<path stroke-linejoin="round" stroke-linecap="round" stroke-width="11.3336" stroke="white" d="M872.034 293.724L972.306 346.065L860.074 360.132"></path>
<rect fill="#9886E5" transform="rotate(-10.1101 558.048 281.393)" rx="60" height="264.903" width="264.903" y="281.393" x="558.048"></rect>
<mask height="308" width="308" y="235" x="558" maskUnits="userSpaceOnUse" style="mask-type:alpha" id="mask0_14004_594">
<rect fill="#9886E5" transform="rotate(-10.1101 558 281.501)" rx="60" height="264.903" width="264.903" y="281.501" x="558"></rect>
</mask>
<g mask="url(#mask0_14004_594)">
<path fill="#FFFDF8" d="M557.893 605.874C568.931 635.332 587.435 636.133 604.036 629.913C632.964 619.074 648.265 589.889 656.548 563.254C657.26 560.967 663.022 561.267 663.863 563.51C669.104 577.497 680.924 584.427 696.886 578.446C716.288 571.176 731.259 548.529 737.515 526.015C737.874 524.722 740.851 524.771 741.322 526.027C744.975 535.776 752.812 539.848 764.092 535.622C799.635 522.304 811.966 446.387 791.479 391.71C775.518 349.113 739.753 319.736 685.268 340.151C589.492 376.038 529.783 530.852 557.893 605.874Z"></path>
</g>
<path stroke-linecap="round" stroke-width="6.61126" stroke="#9886E5" d="M716.998 436.928C716.586 424.574 709.031 414.919 700.125 415.363C691.22 415.807 684.334 426.181 684.747 438.535"></path>
<path stroke-linecap="round" stroke-width="6.61126" stroke="#9886E5" d="M766.154 431.368C765.741 419.015 758.187 409.36 749.281 409.804C740.375 410.247 733.49 420.622 733.903 432.975"></path>
<g clip-path="url(#clip0_14004_594)">
<path fill="#FFFDF8" d="M1148 302.162C1178.13 331.227 1196.11 370.973 1197.27 412.957C1197.3 413.915 1197.32 414.873 1197.33 415.833C1197.38 419.819 1197.32 423.94 1198.84 427.611C1200.36 431.282 1203.96 434.358 1207.71 433.715C1210.49 433.238 1212.67 430.839 1213.76 428.126C1214.84 425.413 1215 422.396 1215.09 419.447C1216.81 360.313 1193 300.721 1151.51 260.311C1146.49 255.421 1140.45 250.483 1133.21 252.797C1129.2 254.078 1124.58 259.225 1123.07 263.318C1119.79 272.168 1125.22 279.642 1131.25 286.005L1148 302.162Z"></path>
<path fill="#FFFDF8" d="M1145.09 360.096C1150.88 353.537 1145.42 339.131 1132.91 327.92C1120.4 316.708 1105.56 312.936 1099.78 319.495C1093.99 326.054 1099.45 340.46 1111.96 351.672C1124.47 362.884 1139.31 366.655 1145.09 360.096Z"></path>
<path fill="#FFFDF8" d="M1017.5 264.179C1018.19 261.428 1014.5 258.108 1009.25 256.764C1004.01 255.42 999.195 256.56 998.504 259.311C997.813 262.063 1001.5 265.383 1006.75 266.727C1012 268.071 1016.81 266.93 1017.5 264.179Z"></path>
<path fill="#FFFDF8" d="M639.768 182.162C654.76 179.226 665.563 169.885 663.897 161.301C662.231 152.716 648.727 148.137 633.735 151.074C618.743 154.011 607.94 163.351 609.606 171.936C611.272 180.521 624.776 185.099 639.768 182.162Z"></path>
<path fill="#FFFDF8" d="M705.788 219.689C709.927 219.229 713.07 216.934 712.808 214.564C712.545 212.193 708.977 210.645 704.838 211.105C700.699 211.566 697.556 213.861 697.819 216.231C698.081 218.601 701.649 220.15 705.788 219.689Z"></path>
<path fill="#FFFDF8" d="M504.677 187.512C509.483 186.57 512.946 183.576 512.412 180.824C511.878 178.073 507.549 176.605 502.743 177.547C497.936 178.488 494.473 181.482 495.007 184.234C495.541 186.986 499.87 188.453 504.677 187.512Z"></path>
<path fill="#FFFDF8" d="M387.319 261.169C389.454 259.87 390.59 257.825 389.855 256.601C389.121 255.377 386.795 255.438 384.66 256.738C382.524 258.037 381.389 260.083 382.123 261.306C382.857 262.53 385.183 262.469 387.319 261.169Z"></path>
<path fill="#FFFDF8" d="M1129.42 461.104C1136.94 448.781 1138.01 435.672 1131.8 431.824C1125.6 427.975 1114.48 434.845 1106.96 447.167C1099.44 459.49 1098.37 472.599 1104.57 476.448C1110.77 480.296 1121.9 473.427 1129.42 461.104Z"></path>
<path fill="#FFFDF8" d="M993.678 170.96L998.067 190.003C998.898 193.608 1001.61 196.486 1005.17 197.528L1023.97 203.034C1025.74 203.553 1025.67 206.085 1023.87 206.499L1004.77 210.876C1001.16 211.705 998.273 214.414 997.229 217.963L991.707 236.711C991.187 238.48 988.649 238.404 988.234 236.608L983.846 217.564C983.014 213.959 980.297 211.081 976.739 210.04L957.941 204.533C956.168 204.014 956.244 201.483 958.045 201.069L977.139 196.692C980.754 195.863 983.64 193.153 984.684 189.604L990.205 170.856C990.725 169.088 993.263 169.163 993.678 170.96Z"></path>
</g>
<path fill="#FFFDF8" d="M532.671 489.814L531.228 507.497C530.955 510.844 532.514 514.079 535.307 515.954L550.06 525.867C551.452 526.801 550.69 528.972 549.017 528.837L531.287 527.397C527.931 527.125 524.687 528.68 522.807 531.465L512.868 546.179C511.931 547.568 509.755 546.807 509.89 545.139L511.334 527.456C511.607 524.108 510.047 520.873 507.255 518.998L492.501 509.085C491.109 508.151 491.872 505.981 493.545 506.116L511.275 507.556C514.631 507.828 517.875 506.273 519.755 503.487L529.694 488.773C530.631 487.385 532.807 488.145 532.671 489.814Z"></path>
<defs>
<clipPath id="clip0_14004_594">
<rect transform="matrix(0.998287 -0.058501 0.0588117 0.998269 376.304 165.695)" fill="white" height="354.098" width="823.21"></rect>
</clipPath>
</defs>
</svg>
