<svg xmlns="http://www.w3.org/2000/svg" fill="none" viewBox="0 0 1632 700" height="700" width="1632">
<g clip-path="url(#clip0_1_8067)">
<rect fill="#4A87F2" height="700" width="1632"></rect>
<mask fill="white" id="path-1-inside-1_1_8067">
<path d="M18.2998 49.6416C18.6366 49.5718 18.9634 49.5206 19.3045 49.465C19.066 50.0186 18.7249 50.0741 18.2998 49.6416Z"></path>
</mask>
<path fill="#888886" d="M18.2998 49.6416C18.6366 49.5718 18.9634 49.5206 19.3045 49.465C19.066 50.0186 18.7249 50.0741 18.2998 49.6416Z"></path>
<path mask="url(#path-1-inside-1_1_8067)" fill="#FFFDF8" d="M18.2998 49.6416L16.2706 39.8496C12.6869 40.5923 9.79511 43.2334 8.73144 46.7353C7.66777 50.2373 8.60214 54.0405 11.1675 56.6509L18.2998 49.6416ZM19.3045 49.465L28.4883 53.422C29.9336 50.0677 29.4351 46.1922 27.188 43.3128C24.9409 40.4334 21.3028 39.0081 17.6978 39.595L19.3045 49.465ZM20.329 59.4336C20.4051 59.4178 20.4801 59.4053 20.9112 59.3351L17.6978 39.595C17.4467 39.6358 16.8681 39.7258 16.2706 39.8496L20.329 59.4336ZM10.1207 45.508C10.3492 44.9776 12.1303 40.9382 17.1726 40.0686C22.0883 39.2209 25.0883 42.2824 25.4321 42.6323L11.1675 56.6509C11.9364 57.4333 15.3195 60.6834 20.5716 59.7776C25.9503 58.8501 28.0212 54.5061 28.4883 53.422L10.1207 45.508Z"></path>
<mask fill="white" id="path-3-inside-2_1_8067">
<path d="M25.9744 47.4669C26.2755 47.3301 26.5724 47.1789 26.8878 47.0378C26.7991 47.6242 26.5151 47.8182 25.9744 47.4669Z"></path>
</mask>
<path fill="#888886" d="M25.9744 47.4669C26.2755 47.3301 26.5724 47.1789 26.8878 47.0378C26.7991 47.6242 26.5151 47.8182 25.9744 47.4669Z"></path>
<path mask="url(#path-3-inside-2_1_8067)" fill="#FFFDF8" d="M25.9744 47.4669L21.8366 38.3632C18.5117 39.8744 16.2751 43.078 16.0023 46.7201C15.7296 50.3621 17.464 53.8632 20.5267 55.8528L25.9744 47.4669ZM26.8878 47.0378L36.7754 48.5332C37.3223 44.9171 35.8515 41.2908 32.9402 39.0773C30.0289 36.8638 26.1414 36.4162 22.8031 37.91L26.8878 47.0378ZM30.1122 56.5707C30.3766 56.4505 30.63 56.3282 30.7492 56.271C30.9034 56.1971 30.9487 56.1762 30.9725 56.1655L22.8031 37.91C22.5116 38.0405 22.2507 38.1657 22.1023 38.2369C21.9189 38.3248 21.8734 38.3464 21.8366 38.3632L30.1122 56.5707ZM17.0003 45.5423C17.0704 45.0786 17.2587 44.0918 17.8382 42.9319C18.4407 41.7262 19.6805 39.9321 21.9845 38.7332C26.9196 36.1651 31.0265 38.8241 31.422 39.081L20.5267 55.8528C21.463 56.461 25.9823 59.1987 31.2167 56.4748C35.9563 54.0085 36.6575 49.3124 36.7754 48.5332L17.0003 45.5423Z"></path>
<mask fill="white" id="path-5-inside-3_1_8067">
<path d="M146.407 11.2617C146.744 11.1919 147.071 11.1407 147.412 11.0852C147.173 11.6387 146.832 11.6943 146.407 11.2617Z"></path>
</mask>
<path fill="#888886" d="M146.407 11.2617C146.744 11.1919 147.071 11.1407 147.412 11.0852C147.173 11.6387 146.832 11.6943 146.407 11.2617Z"></path>
<path mask="url(#path-5-inside-3_1_8067)" fill="#FFFDF8" d="M146.407 11.2617L144.378 1.46976C140.794 2.21241 137.903 4.85351 136.839 8.35544C135.775 11.8574 136.71 15.6606 139.275 18.271L146.407 11.2617ZM147.412 11.0852L156.596 15.0422C158.041 11.6878 157.542 7.81235 155.295 4.93293C153.048 2.05351 149.41 0.628239 145.805 1.21508L147.412 11.0852ZM148.436 21.0537C148.513 21.0379 148.587 21.0254 149.019 20.9552L145.805 1.21508C145.554 1.25593 144.976 1.34594 144.378 1.46976L148.436 21.0537ZM138.228 7.12817C138.457 6.59793 140.238 2.55828 145.28 1.6887C150.196 0.840966 153.196 3.90273 153.54 4.25246L139.275 18.271C140.044 19.0532 143.427 22.3035 148.679 21.3978C154.058 20.4702 156.129 16.126 156.596 15.0422L138.228 7.12817Z"></path>
<mask fill="white" id="path-7-inside-4_1_8067">
<path d="M154.096 9.08314C154.398 8.94627 154.694 8.79513 155.01 8.65398C154.921 9.24044 154.637 9.43439 154.096 9.08314Z"></path>
</mask>
<path fill="#888886" d="M154.096 9.08314C154.398 8.94627 154.694 8.79513 155.01 8.65398C154.921 9.24044 154.637 9.43439 154.096 9.08314Z"></path>
<path mask="url(#path-7-inside-4_1_8067)" fill="#FFFDF8" d="M154.096 9.08314L149.959 -0.0206307C146.634 1.49059 144.397 4.69425 144.124 8.3363C143.852 11.9783 145.586 15.4794 148.649 17.469L154.096 9.08314ZM155.01 8.65398L164.897 10.1494C165.444 6.53328 163.974 2.90703 161.062 0.693522C158.151 -1.51998 154.263 -1.96762 150.925 -0.473746L155.01 8.65398ZM158.234 18.1869C158.499 18.0667 158.752 17.9444 158.871 17.8872C159.026 17.8133 159.071 17.7924 159.095 17.7817L150.925 -0.473746C150.634 -0.34325 150.373 -0.218038 150.224 -0.146881C150.041 -0.0589717 149.995 -0.0373285 149.959 -0.0206307L158.234 18.1869ZM145.122 7.15855C145.192 6.69484 145.381 5.70814 145.96 4.54828C146.563 3.34259 147.802 1.5484 150.107 0.349397C155.042 -2.21877 159.149 0.440439 159.544 0.697258L148.649 17.469C149.585 18.0771 154.104 20.815 159.339 18.091C164.079 15.6246 164.78 10.9284 164.897 10.1494L145.122 7.15855Z"></path>
<path stroke-width="10" stroke="#FFFDF8" d="M376.495 294.977C328.528 336.153 274.341 372.997 213.018 386.588C176.51 394.651 147.602 385.748 129.554 366.869C111.642 348.134 103.609 318.72 110.386 283.754C110.62 283.359 110.808 282.942 110.948 282.511C111.25 281.585 111.283 280.744 111.276 280.234C111.367 280.059 111.451 279.878 111.527 279.691C111.969 278.61 112.038 277.622 112.039 276.984C112.04 276.87 112.037 276.75 112.033 276.632C112.053 276.585 112.073 276.538 112.093 276.49C112.511 275.48 112.584 274.562 112.599 274.016C112.599 274 112.6 273.984 112.6 273.968C112.75 273.655 112.877 273.325 112.977 272.978C113.184 272.266 113.249 271.585 113.233 270.966C130.83 202.258 173.859 131.131 230.011 72.5585C286.294 13.8491 355.375 -31.847 424.495 -49.9334C424.511 -49.9321 424.528 -49.9307 424.547 -49.9292C424.702 -49.9167 424.974 -49.8956 425.279 -49.8908C425.867 -49.8816 426.976 -49.9178 428.18 -50.4641C428.196 -50.4713 428.211 -50.4785 428.227 -50.4857C428.858 -50.4855 429.538 -50.5948 430.248 -50.8699C430.737 -51.0596 431.162 -51.2999 431.529 -51.5665C472.802 -59.0856 501.048 -46.1265 516.734 -23.2738C532.691 -0.0246391 536.424 34.5711 525.934 71.3806C525.718 71.6754 525.512 72.0123 525.336 72.394C524.91 73.3217 524.772 74.2496 524.83 75.1179C522.833 80.6203 521.36 85.1781 520.383 88.9131C519.387 92.7207 518.822 95.9782 518.875 98.6393C518.926 101.199 519.597 104.468 522.494 106.457C525.197 108.313 528.308 107.946 530.282 107.498C532.444 107.008 534.804 106.046 537.092 105.011C538.761 104.256 540.597 103.366 542.476 102.455C543.202 102.103 543.934 101.748 544.665 101.396C550.05 98.8074 555.882 96.1721 561.861 94.6439C587.017 88.8471 603.051 92.438 612.947 100.413C622.935 108.462 627.948 121.993 628.732 138.861C630.306 172.706 614.607 216.247 595.987 241.408L595.882 241.551L595.787 241.7C561.098 296.258 511.491 349.348 447.516 362.015C447.045 362.109 446.793 362.162 446.627 362.195C446.452 362.23 446.373 362.244 446.233 362.26C445.994 362.287 445.554 362.314 444.257 362.314H444.053L443.851 362.331C440.91 362.57 438.004 362.585 435.123 362.333C434.421 362.272 433.984 362.209 433.487 362.138L433.473 362.136C432.938 362.059 432.319 361.97 431.428 361.899C416.318 360.602 406.721 352.276 400.671 340.603C394.694 329.068 392.302 314.389 392.116 300.675C392.116 300.673 392.117 300.671 392.118 300.669C392.625 299.184 392.451 297.484 391.5 296.085C390.965 294.818 390.109 293.526 388.712 292.591C386.736 291.268 384.637 291.287 383.155 291.592C381.752 291.881 380.507 292.493 379.612 292.988C378.751 293.465 377.886 294.024 377.194 294.471L377.041 294.57L376.754 294.755L376.495 294.977ZM424.241 -49.9531C424.242 -49.9531 424.243 -49.953 424.244 -49.953C424.227 -49.9532 424.218 -49.9537 424.218 -49.9539C424.218 -49.9541 424.226 -49.954 424.241 -49.9531Z"></path>
<path stroke-linejoin="round" stroke-width="10" stroke="#FFFDF8" d="M1128.16 792.004C1121.35 878.047 1091.05 966.547 1028.62 1027.74C1028.61 1027.76 1028.59 1027.78 1028.57 1027.79C986.545 1070.21 941.706 1078.06 905.735 1062.79C869.485 1047.39 840.73 1007.9 832.565 952.588C832.563 952.573 832.561 952.559 832.558 952.544C832.554 952.519 832.55 952.493 832.546 952.467C815.062 851.185 838.517 743.229 895.307 657.571C895.34 657.522 895.371 657.473 895.402 657.423C925.191 608.88 972.673 569.29 1023.43 554.077C1073.9 538.953 1127.66 547.833 1171.4 596.291C1172.48 597.496 1174.09 598.098 1175.7 597.905C1177.31 597.713 1178.73 596.749 1179.51 595.321C1200.89 555.828 1238.63 522.338 1279 509.25C1299.12 502.726 1319.76 501.311 1339.36 506.564C1358.91 511.807 1377.76 523.779 1394.23 544.595C1395.14 545.742 1396.5 546.435 1397.97 546.489C1399.43 546.543 1400.84 545.953 1401.83 544.875C1424.18 520.558 1443.24 511.039 1458.37 510.436C1473.18 509.845 1485.58 517.784 1494.96 531.836C1504.38 545.964 1510.39 565.871 1512.04 587.676C1513.68 609.435 1510.93 632.695 1503.23 653.356C1503.16 653.541 1503.11 653.731 1503.06 653.923C1493.83 691.986 1465.01 726.765 1436.34 738.244C1422.21 743.905 1408.64 743.741 1397.27 736.299C1385.72 728.745 1375.37 713.01 1369.43 685.192C1368.92 682.798 1366.75 681.126 1364.3 681.243C1361.85 681.361 1359.85 683.232 1359.57 685.665C1351.64 754.414 1326.63 826.397 1270.85 869.219L1270.83 869.234C1253.85 882.402 1237.69 888.314 1223.01 888.995C1208.35 889.676 1194.76 885.16 1182.86 876.769C1159.22 860.106 1142.31 828.16 1138.27 792.55C1138.38 792.042 1138.42 791.462 1138.34 790.824C1138.15 789.354 1137.37 788.349 1136.77 787.79C1135.83 786.916 1134.79 786.643 1134.6 786.592L1134.58 786.587C1133.29 786.239 1131.92 786.42 1130.76 787.092C1129.93 787.573 1129.27 788.276 1128.84 789.112C1128.33 789.967 1128.08 790.971 1128.16 792.004Z"></path>
<mask fill="white" id="path-11-inside-5_1_8067">
<path d="M1468.66 46.5546C1514.98 54.1115 1546.02 98.2792 1537.45 144.42L1536.78 147.989L1535.28 156.106C1527.1 200.126 1484.93 229.296 1440.85 221.421C1396.02 213.412 1352.92 197.955 1313.31 175.754C1318.11 219.107 1317 262.997 1309.95 306.213C1302.39 352.532 1258.22 383.578 1212.08 375.004L1209.11 374.453C1208.91 374.417 1208.71 374.381 1208.51 374.343C1208.31 374.306 1208.11 374.268 1207.91 374.23L1200.4 372.833C1156.38 364.653 1127.21 322.483 1135.08 278.408C1143.07 233.709 1158.46 190.728 1180.55 151.216C1135.74 157.644 1090.11 156.566 1045.53 147.962C1001.56 139.478 972.688 97.1067 980.868 53.087L982.376 44.9693L983.039 41.4011C991.613 -4.74013 1036.45 -34.807 1082.39 -25.2203C1125.25 -16.277 1166.6 -1.54955 1205.34 18.4923C1198.85 -26.4364 1199.91 -72.2024 1208.54 -116.906C1217.02 -160.868 1259.39 -189.744 1303.41 -181.565L1310.93 -180.168C1311.13 -180.133 1311.33 -180.096 1311.53 -180.059C1311.73 -180.022 1311.93 -179.983 1312.13 -179.945L1315.1 -179.393C1361.24 -170.819 1391.31 -125.979 1381.72 -80.0381C1372.75 -37.0617 1357.97 4.40109 1337.84 43.2262C1381.31 38.3879 1425.32 39.4846 1468.66 46.5546Z" clip-rule="evenodd" fill-rule="evenodd"></path>
</mask>
<path mask="url(#path-11-inside-5_1_8067)" fill="#FFFDF8" d="M1537.45 144.42L1527.62 142.593L1527.62 142.594L1537.45 144.42ZM1468.66 46.5546L1470.27 36.6851L1468.66 46.5546ZM1536.78 147.989L1546.62 149.816L1546.62 149.816L1536.78 147.989ZM1535.28 156.106L1525.44 154.279L1525.44 154.279L1535.28 156.106ZM1440.85 221.421L1442.61 211.577L1440.85 221.421ZM1313.31 175.754L1318.2 167.031C1314.94 165.199 1310.92 165.348 1307.79 167.417C1304.67 169.486 1302.96 173.128 1303.38 176.853L1313.31 175.754ZM1309.95 306.213L1319.82 307.824L1309.95 306.213ZM1209.11 374.453L1210.94 364.621C1210.91 364.616 1210.89 364.611 1210.86 364.607L1209.11 374.453ZM1207.91 374.23L1209.82 364.413C1209.79 364.408 1209.77 364.403 1209.74 364.398L1207.91 374.23ZM1200.4 372.833L1202.22 363.001L1202.22 363.001L1200.4 372.833ZM1135.08 278.408L1125.24 276.649L1135.08 278.408ZM1180.55 151.216L1189.28 156.097C1191.14 152.777 1190.95 148.692 1188.8 145.556C1186.65 142.42 1182.9 140.777 1179.13 141.317L1180.55 151.216ZM1045.53 147.962L1043.63 157.781L1045.53 147.962ZM980.868 53.087L990.699 54.9139L990.699 54.9139L980.868 53.087ZM982.376 44.9693L992.208 46.7962L992.208 46.7962L982.376 44.9693ZM983.039 41.4011L973.207 39.5742L973.207 39.5742L983.039 41.4011ZM1082.39 -25.2203L1084.44 -35.0094L1084.44 -35.0094L1082.39 -25.2203ZM1205.34 18.4923L1200.74 27.3737C1204.07 29.0957 1208.08 28.8128 1211.13 26.6407C1214.19 24.4686 1215.77 20.7719 1215.23 17.0633L1205.34 18.4923ZM1208.54 -116.906L1218.36 -115.011L1208.54 -116.906ZM1303.41 -181.565L1305.24 -191.396L1305.24 -191.396L1303.41 -181.565ZM1310.93 -180.168L1309.1 -170.337C1309.13 -170.332 1309.15 -170.327 1309.18 -170.323L1310.93 -180.168ZM1312.13 -179.945L1310.23 -170.128C1310.25 -170.123 1310.28 -170.118 1310.31 -170.113L1312.13 -179.945ZM1315.1 -179.393L1316.93 -189.225L1315.1 -179.393ZM1381.72 -80.0381L1391.51 -77.9954L1381.72 -80.0381ZM1337.84 43.2262L1328.96 38.6239C1327.26 41.8998 1327.51 45.8447 1329.6 48.8866C1331.69 51.9285 1335.28 53.573 1338.95 53.1648L1337.84 43.2262ZM1547.28 146.247C1556.88 94.5916 1522.12 45.1451 1470.27 36.6851L1467.05 56.4242C1507.83 63.0778 1535.16 101.967 1527.62 142.593L1547.28 146.247ZM1546.62 149.816L1547.28 146.247L1527.62 142.594L1526.95 146.162L1546.62 149.816ZM1545.11 157.933L1546.62 149.816L1526.95 146.162L1525.44 154.279L1545.11 157.933ZM1439.09 231.265C1488.58 240.106 1535.92 207.356 1545.11 157.933L1525.44 154.279C1518.27 192.896 1481.27 218.485 1442.61 211.577L1439.09 231.265ZM1308.43 184.477C1349 207.223 1393.16 223.06 1439.09 231.265L1442.61 211.577C1398.88 203.765 1356.84 188.687 1318.2 167.031L1308.43 184.477ZM1319.82 307.824C1327.01 263.71 1328.15 218.909 1323.25 174.655L1303.38 176.853C1308.07 219.306 1306.98 262.284 1300.08 304.603L1319.82 307.824ZM1210.25 384.836C1261.91 394.434 1311.36 359.678 1319.82 307.824L1300.08 304.603C1293.42 345.386 1254.53 372.721 1213.91 365.172L1210.25 384.836ZM1207.29 384.284L1210.25 384.836L1213.91 365.172L1210.94 364.621L1207.29 384.284ZM1210.86 364.607C1210.69 364.576 1210.51 364.544 1210.34 364.512L1206.69 384.175C1206.91 384.217 1207.14 384.258 1207.36 384.298L1210.86 364.607ZM1210.34 364.512C1210.17 364.479 1209.99 364.446 1209.82 364.413L1206.01 384.047C1206.23 384.09 1206.46 384.133 1206.69 384.175L1210.34 364.512ZM1198.57 382.664L1206.09 384.061L1209.74 364.398L1202.22 363.001L1198.57 382.664ZM1125.24 276.649C1116.4 326.134 1149.15 373.481 1198.57 382.664L1202.22 363.001C1163.61 355.825 1138.02 318.831 1144.92 280.166L1125.24 276.649ZM1171.83 146.335C1149.19 186.817 1133.42 230.853 1125.24 276.649L1144.92 280.166C1152.71 236.565 1167.73 194.639 1189.28 156.097L1171.83 146.335ZM1043.63 157.781C1089.31 166.596 1136.06 167.7 1181.97 161.115L1179.13 141.317C1135.42 147.587 1090.91 146.536 1047.42 138.144L1043.63 157.781ZM971.036 51.2601C961.852 100.683 994.273 148.255 1043.63 157.781L1047.42 138.144C1008.86 130.7 983.524 93.5303 990.699 54.9139L971.036 51.2601ZM972.544 43.1424L971.036 51.2601L990.699 54.9139L992.208 46.7962L972.544 43.1424ZM973.207 39.5742L972.544 43.1424L992.208 46.7962L992.871 43.2279L973.207 39.5742ZM1084.44 -35.0094C1033 -45.7418 982.806 -12.0816 973.207 39.5742L992.871 43.228C1000.42 2.60132 1039.9 -23.8721 1080.35 -15.4311L1084.44 -35.0094ZM1209.93 9.61083C1170.4 -10.8472 1128.18 -25.8805 1084.44 -35.0094L1080.35 -15.4311C1122.32 -6.6736 1162.81 7.74807 1200.74 27.3737L1209.93 9.61083ZM1215.23 17.0633C1208.91 -26.7624 1209.94 -71.4049 1218.36 -115.011L1198.72 -118.801C1189.88 -72.9999 1188.79 -26.1104 1195.44 19.9212L1215.23 17.0633ZM1218.36 -115.011C1225.8 -153.577 1262.97 -178.909 1301.59 -171.733L1305.24 -191.396C1255.82 -200.58 1208.24 -168.159 1198.72 -118.801L1218.36 -115.011ZM1301.59 -171.733L1309.1 -170.337L1312.75 -190L1305.24 -191.396L1301.59 -171.733ZM1313.36 -189.891C1313.13 -189.933 1312.9 -189.974 1312.68 -190.014L1309.18 -170.323C1309.35 -170.292 1309.53 -170.26 1309.7 -170.227L1313.36 -189.891ZM1314.04 -189.762C1313.81 -189.805 1313.58 -189.848 1313.36 -189.891L1309.7 -170.227C1309.88 -170.195 1310.05 -170.161 1310.23 -170.128L1314.04 -189.762ZM1310.31 -170.113L1313.27 -169.562L1316.93 -189.225L1313.96 -189.776L1310.31 -170.113ZM1313.27 -169.562C1353.9 -162.012 1380.37 -122.532 1371.93 -82.0808L1391.51 -77.9954C1402.24 -129.427 1368.58 -179.626 1316.93 -189.225L1313.27 -169.562ZM1371.93 -82.0808C1363.15 -39.9969 1348.67 0.604957 1328.96 38.6239L1346.72 47.8285C1367.26 8.1972 1382.35 -34.1266 1391.51 -77.9954L1371.93 -82.0808ZM1470.27 36.6851C1426.03 29.4683 1381.11 28.3488 1336.73 33.2875L1338.95 53.1648C1381.51 48.427 1424.61 49.5009 1467.05 56.4242L1470.27 36.6851Z"></path>
<path stroke-width="10" stroke="#FFFDF8" d="M533.552 848.629C453.287 933.942 335.972 950.885 271.407 890.14C206.842 829.395 216.608 711.266 296.874 625.953C377.14 540.64 494.455 523.697 559.019 584.442C623.584 645.187 613.818 763.316 533.552 848.629Z"></path>
<path stroke-linejoin="round" stroke-linecap="round" stroke-width="10" stroke="#FFFCF7" d="M701.612 476.926C740.019 476.926 768.882 443.531 786.106 417.142C784.011 422.981 782.847 428.82 782.847 434.423C782.847 449.835 791.693 460.811 809.149 460.811C833.123 460.811 858.729 439.795 871.995 417.142C871.065 420.411 870.598 423.449 870.598 426.25C870.598 436.993 876.649 443.764 888.986 443.764C927.858 443.764 966.963 374.873 966.963 314.624C966.963 267.686 943.22 226.352 883.633 226.352C778.891 226.352 666 354.324 666 436.993C666 469.452 683.458 476.926 701.612 476.926Z"></path>
<path fill="#FFFCF7" d="M847.561 309.486C847.561 297.81 854.077 289.635 863.621 289.635C873.166 289.635 879.449 297.81 879.449 309.486C879.449 321.161 872.932 329.568 863.621 329.568C854.311 329.568 847.561 321.161 847.561 309.486Z"></path>
<path fill="#FFFCF7" d="M897.37 310.559C897.37 298.883 903.887 290.708 913.431 290.708C922.976 290.708 929.258 298.883 929.258 310.559C929.258 322.234 922.742 330.641 913.431 330.641C904.12 330.641 897.37 322.234 897.37 310.559Z"></path>
</g>
<defs>
<clipPath id="clip0_1_8067">
<rect fill="white" height="700" width="1632"></rect>
</clipPath>
</defs>
</svg>
