<svg width="1632" height="701" viewBox="0 0 1632 701" fill="none" xmlns="http://www.w3.org/2000/svg">
<g clip-path="url(#clip0_1711_45583)">
<path d="M1632 0.189453H0V700.009H1632V0.189453Z" fill="#FFD13F"></path>
<g opacity="0.5">
<ellipse cx="955.128" cy="81.9419" rx="199.382" ry="80.0278" transform="rotate(-36.5067 955.128 81.9419)" fill="#FFFDF8"></ellipse>
<ellipse cx="653.241" cy="656.677" rx="234.305" ry="67.2415" fill="#FFFDF8"></ellipse>
<ellipse cx="466.531" cy="474.196" rx="111.607" ry="31.8877" transform="rotate(-60.4874 466.531 474.196)" fill="#FFFDF8"></ellipse>
<ellipse cx="653.044" cy="329.076" rx="234.513" ry="108.662" transform="rotate(31.7201 653.044 329.076)" fill="#FFFDF8"></ellipse>
<circle cx="630.704" cy="130.637" r="7.1776" transform="rotate(-138.991 630.704 130.637)" fill="#FFFDF8"></circle>
<circle cx="674.345" cy="155.936" r="4.91127" transform="rotate(-138.991 674.345 155.936)" fill="#FFFDF8"></circle>
<ellipse cx="570.717" cy="140.77" rx="26.2229" ry="14.1916" transform="rotate(-173.554 570.717 140.77)" fill="#FFFDF8"></ellipse>
<path fill-rule="evenodd" clip-rule="evenodd" d="M446.94 125.717C442.764 116.73 446.665 106.059 455.653 101.883C502.617 80.0638 549.107 87.8756 584.601 102.876C592.03 106.016 599.317 109.617 606.186 113.342C613.551 117.336 608.991 126 601.026 123.405C597.76 122.341 594.659 121.395 591.85 120.628C575.675 116.212 559.75 115.157 554.525 114.329C532.58 110.852 498.541 121.529 470.774 134.43C461.787 138.606 451.116 134.705 446.94 125.717Z" fill="#FFFDF8"></path>
<path d="M897.092 429.844C870.804 436.061 863.617 443.706 858.028 472.406C857.544 474.86 853.975 474.86 853.503 472.406C847.902 443.706 840.728 436.061 814.439 429.844C812.068 429.284 812.068 425.986 814.439 425.426C840.716 419.209 847.89 411.564 853.491 382.852C853.975 380.398 857.544 380.398 858.016 382.852C863.617 411.552 870.791 419.198 897.08 425.414C899.452 425.974 899.452 429.272 897.08 429.832L897.092 429.844Z" fill="#FFFDF8"></path>
<path d="M499.209 616.086C472.92 622.303 465.734 629.948 460.144 658.649C459.66 661.102 456.091 661.102 455.62 658.649C450.018 629.948 442.844 622.303 416.555 616.086C414.184 615.527 414.184 612.228 416.555 611.668C442.832 605.452 450.006 597.806 455.608 569.094C456.091 566.641 459.66 566.641 460.132 569.094C465.734 597.794 472.908 605.44 499.197 611.656C501.568 612.216 501.568 615.515 499.197 616.074L499.209 616.086Z" fill="#FFFDF8"></path>
<path d="M490.64 410.067C480.532 412.63 477.805 415.63 475.823 426.759C475.651 427.71 474.273 427.732 474.076 426.786C471.739 415.725 468.923 412.814 458.739 410.571C457.82 410.369 457.8 409.094 458.712 408.863C468.816 406.299 471.538 403.3 473.525 392.166C473.696 391.215 475.074 391.193 475.271 392.139C477.608 403.2 480.424 406.111 490.609 408.354C491.527 408.556 491.547 409.831 490.636 410.062L490.64 410.067Z" fill="#FFFDF8"></path>
</g>
<path d="M867.696 260.263V230.521C872.67 224.965 877.992 219.716 883.653 214.814H913.152V260.271H867.696V260.263Z" fill="#4A87F2"></path>
<path d="M867.696 305.72H827.633C831.679 289.698 837.938 274.411 846.118 260.263H867.696V305.72Z" fill="#4A87F2"></path>
<path d="M913.152 305.72H867.696V351.176H913.152V305.72Z" fill="#4A87F2"></path>
<path d="M867.696 351.176V396.633H828.683C827.569 392.611 826.6 388.517 825.76 384.366C823.523 373.23 822.368 362.135 822.231 351.176H867.696Z" fill="#4A87F2"></path>
<path d="M848.363 442.082H867.688V468.004C860.525 460.017 854.032 451.352 848.363 442.082Z" fill="#4A87F2"></path>
<path d="M1035.18 523.546C1008.99 528.819 982.972 528.052 958.601 522.181V487.506H913.144V442.081H867.688V396.625H913.144V442.049H958.601V396.625H913.144V351.168H958.601V305.712H913.144V260.255H958.601V176.335C960.7 175.835 962.816 175.366 964.94 174.938C1061.21 155.549 1154.96 217.859 1174.35 314.118C1193.75 410.385 1131.44 504.141 1035.17 523.538L1035.18 523.546Z" fill="#4A87F2"></path>
<path d="M913.144 260.263H875.117C885.446 245.768 898.277 233.057 913.144 222.833V260.263Z" fill="#FFFDF8"></path>
<path d="M867.696 305.72H852.958C856.495 293.792 861.47 282.39 867.696 271.754V305.72Z" fill="#FFFDF8"></path>
<path d="M913.152 305.72H867.696V351.176H913.152V305.72Z" fill="#FFFDF8"></path>
<path d="M867.696 351.176V396.633H854.169C852.377 391.093 850.883 385.392 849.704 379.545C847.79 370.032 846.796 360.544 846.659 351.176H867.696Z" fill="#FFFDF8"></path>
<path d="M1030.35 499.603C1005.7 504.561 981.244 503.326 958.601 496.954V487.506H933.648C926.509 484.082 919.653 480.093 913.152 475.619V442.082H877.944C874.237 437.228 870.813 432.133 867.696 426.803V396.625H913.152V442.049H958.609V396.625H913.152V351.168H958.609V305.712H913.152V260.255H958.609V201.571C962.267 200.546 965.99 199.641 969.777 198.882C976.69 197.493 983.578 196.589 990.418 196.161C991.314 196.104 992.203 196.048 993.099 196.007C993.697 195.983 994.286 195.951 994.884 195.935C995.481 195.91 996.071 195.886 996.668 195.878C997.864 195.838 999.051 195.83 1000.24 195.83C1001.28 195.83 1002.33 195.838 1003.37 195.87C1073.63 197.315 1135.98 247.197 1150.43 318.948C1167.16 401.987 1113.41 482.871 1030.37 499.603H1030.35Z" fill="#FFFDF8"></path>
<path d="M913.145 224.925V260.263H879.866C888.829 246.777 900.07 234.785 913.145 224.925Z" fill="#4A87F2"></path>
<path d="M867.696 282.567V305.712H859.847C861.801 297.749 864.442 290.013 867.696 282.567Z" fill="#4A87F2"></path>
<path d="M913.152 305.72H867.696V351.176H913.152V305.72Z" fill="#4A87F2"></path>
<path d="M867.696 351.176V396.633H867.122C863.391 387.823 860.5 378.512 858.53 368.773C857.343 362.886 856.535 357.023 856.091 351.184H867.696V351.176Z" fill="#4A87F2"></path>
<path d="M1028.57 481.788C1004.49 486.642 980.59 485.188 958.601 478.574C942.143 473.632 926.751 465.791 913.144 455.527V442.082H897.68C885.211 429.573 874.955 414.682 867.688 397.949V396.625H913.144V442.049H958.601V396.625H913.144V351.168H958.601V305.712H913.144V260.255H958.601V201.927C962.824 200.667 967.136 199.585 971.537 198.704C977.852 197.437 984.151 196.597 990.41 196.161C991.306 196.104 992.194 196.048 993.091 196.007C993.688 195.983 994.278 195.951 994.875 195.935C995.473 195.91 996.063 195.886 996.66 195.878C997.855 195.838 999.042 195.83 1000.23 195.83C1001.27 195.83 1002.32 195.838 1003.36 195.87C1069.41 197.315 1128.01 244.25 1141.6 311.728C1157.35 389.898 1106.74 466.025 1028.57 481.78V481.788Z" fill="#4A87F2"></path>
<path fill-rule="evenodd" clip-rule="evenodd" d="M1090.69 311.793C1081.43 282.455 1058.38 259.214 1029.03 249.604L1028.75 249.491C1028.28 249.257 1027.83 249.216 1027.48 249.378C1027.13 249.531 1026.88 249.87 1026.77 250.331L1026.64 250.872L1026.31 251.195C1026.29 251.38 1026.29 251.711 1026.29 252.002V259.529C1026.29 260.796 1027.36 262.298 1028.45 263.098C1049.12 270.6 1065.59 285.758 1074.88 305.841C1084.18 325.965 1085.03 348.374 1077.29 368.942C1069.19 391.642 1051.33 409.513 1028.32 417.968C1026.85 418.736 1026.3 419.697 1026.3 421.505V429.032C1026.3 430.582 1027.08 431.099 1027.78 431.317C1027.97 431.317 1028.2 431.309 1028.35 431.261L1028.58 431.026L1029.05 430.881C1053.24 423.242 1072.95 406.655 1084.58 384.181C1096.17 361.731 1098.35 336.019 1090.7 311.785L1090.69 311.793ZM911.303 305.712C905.675 320.231 903.753 335.769 905.618 351.168H913.136V305.712H911.303ZM925.233 374.644C921.737 367.069 919.427 359.171 918.337 351.168H913.144V378.463C916.019 384.972 919.572 391.045 923.707 396.625H940.027C934.027 390.245 929.029 382.864 925.233 374.644Z" fill="#FFFDF8"></path>
<path d="M1005.04 377.018V387.007H995.078V376.856C980.057 375.193 971.764 366.98 970.092 354.77L981.293 352.307C981.866 359.777 986.445 364.517 995.086 365.922C996.87 366.221 998.857 366.366 1001 366.366C1002.44 366.366 1003.78 366.294 1005.05 366.164C1013.8 365.26 1018.6 361.206 1018.6 354.641C1018.6 348.075 1014.76 344.805 1007.53 343.375L1005.05 342.891L995.086 340.929L991.444 340.21C978.741 337.747 971.619 330.479 971.619 319.109C971.619 306.479 980.647 297.838 995.078 296.449V286.387H1005.04V296.595C1018.52 298.331 1026.19 306.455 1028.05 318.051L1016.98 320.514C1015.97 314.021 1011.96 309.378 1005.04 307.714C1003.2 307.27 1001.14 307.028 998.897 307.028C997.533 307.028 996.265 307.101 995.07 307.27C987.382 308.215 983.029 312.212 983.029 318.406C983.029 324.156 986.76 327.669 993.874 329.074L995.07 329.316L1005.03 331.279L1010.42 332.353C1023.15 334.832 1030.02 342.1 1030.02 354.067C1030.02 367.828 1020.86 375.871 1005.03 377.018H1005.04Z" fill="#FFFDF8"></path>
<path d="M731.779 442.098H777.227V487.498H454V214.823H731.779V260.279H777.227V305.736H731.779V351.184H777.227V396.641H731.779V442.098Z" fill="#2EC08B"></path>
<path d="M539.648 450.343C539.163 423.912 517.877 402.512 491.607 402.019V300.309C517.877 299.825 539.163 278.417 539.648 251.994H731.779V250.169H537.815V251.081C537.815 277.214 516.681 298.492 490.687 298.492H489.774V403.844H490.687C516.673 403.844 537.815 425.107 537.815 451.255V452.168H777.227V450.343H539.64H539.648Z" fill="#FFFDF8"></path>
<path d="M911.312 305.72H867.696V351.176H905.626C903.761 335.777 905.683 320.239 911.312 305.72ZM911.312 305.72H867.696V351.176H905.626C903.761 335.777 905.683 320.239 911.312 305.72ZM911.312 305.72H867.696V351.176H905.626C903.761 335.777 905.683 320.239 911.312 305.72ZM867.696 305.72V351.176H913.153V305.72H867.696ZM856.092 351.176C856.536 357.015 857.343 362.886 858.531 368.765C860.493 378.504 863.392 387.815 867.123 396.625H867.696V351.168H856.092V351.176ZM913.153 442.057V396.633H867.696V442.089H913.153V487.514H958.609V442.057H913.153ZM867.696 305.72V351.176H913.153V305.72H867.696ZM911.312 305.72H867.696V351.176H905.626C903.761 335.777 905.683 320.239 911.312 305.72ZM911.312 305.72H867.696V351.176H905.626C903.761 335.777 905.683 320.239 911.312 305.72ZM911.312 305.72H867.696V351.176H905.626C903.761 335.777 905.683 320.239 911.312 305.72ZM913.145 260.263V305.72H958.601V260.263H913.145ZM913.145 351.168V396.625H958.601V351.168H913.145ZM867.688 305.712V351.168H913.145V305.712H867.688ZM822.223 351.168C822.361 362.127 823.516 373.222 825.752 384.358C826.592 388.509 827.561 392.603 828.676 396.625H867.688V351.168H822.223ZM822.223 351.168C822.361 362.127 823.516 373.222 825.752 384.358C826.592 388.509 827.561 392.603 828.676 396.625H867.688V351.168H822.223ZM822.223 351.168C822.361 362.127 823.516 373.222 825.752 384.358C826.592 388.509 827.561 392.603 828.676 396.625H867.688V351.168H822.223ZM822.223 351.168C822.361 362.127 823.516 373.222 825.752 384.358C826.592 388.509 827.561 392.603 828.676 396.625H867.688V351.168H822.223ZM822.215 442.073V487.473H867.688V442.073H822.215ZM822.223 351.168C822.361 362.127 823.516 373.222 825.752 384.358C826.592 388.509 827.561 392.603 828.676 396.625H867.688V351.168H822.223ZM822.223 351.168C822.361 362.127 823.516 373.222 825.752 384.358C826.592 388.509 827.561 392.603 828.676 396.625H867.688V351.168H822.223ZM822.223 351.168C822.361 362.127 823.516 373.222 825.752 384.358C826.592 388.509 827.561 392.603 828.676 396.625H867.688V351.168H822.223ZM822.223 351.168C822.361 362.127 823.516 373.222 825.752 384.358C826.592 388.509 827.561 392.603 828.676 396.625H867.688V351.168H822.223ZM822.223 351.168C822.361 362.127 823.516 373.222 825.752 384.358C826.592 388.509 827.561 392.603 828.676 396.625H867.688V351.168H822.223ZM822.215 351.168V396.625H867.688V351.168H822.215ZM776.759 396.625V442.081H822.215V396.625H776.759ZM822.215 260.263V305.72H867.688V260.263H822.215ZM825.752 384.358C823.516 373.222 822.361 362.127 822.223 351.168H822.215V396.625H828.676C827.561 392.603 826.592 388.509 825.752 384.358ZM825.752 384.358C823.516 373.222 822.361 362.127 822.223 351.168H822.215V396.625H828.676C827.561 392.603 826.592 388.509 825.752 384.358ZM825.752 384.358C823.516 373.222 822.361 362.127 822.223 351.168H822.215V396.625H828.676C827.561 392.603 826.592 388.509 825.752 384.358ZM825.752 384.358C823.516 373.222 822.361 362.127 822.223 351.168H822.215V396.625H828.676C827.561 392.603 826.592 388.509 825.752 384.358ZM911.303 305.712H867.688V351.168H905.618C903.753 335.768 905.675 320.231 911.303 305.712ZM825.752 384.358C823.516 373.222 822.361 362.127 822.223 351.168H822.215V396.625H828.676C827.561 392.603 826.592 388.509 825.752 384.358ZM911.303 305.712H867.688V351.168H905.618C903.753 335.768 905.675 320.231 911.303 305.712ZM822.215 351.168V396.625H867.688V351.168H822.215ZM911.303 305.712H867.688V351.168H905.618C903.753 335.768 905.675 320.231 911.303 305.712ZM822.215 351.168V396.625H867.688V351.168H822.215ZM822.215 305.712H776.759V351.168H822.215V305.712ZM822.215 351.168V396.625H867.688V351.168H822.215ZM911.303 305.712H867.688V351.168H905.618C903.753 335.768 905.675 320.231 911.303 305.712ZM858.522 368.757C857.335 362.87 856.528 357.007 856.084 351.168H822.215V396.625H867.115C863.384 387.815 860.493 378.504 858.522 368.765V368.757ZM911.303 305.712H867.688V351.168H905.618C903.753 335.768 905.675 320.231 911.303 305.712ZM825.752 384.358C823.516 373.222 822.361 362.127 822.223 351.168H822.215V396.625H828.676C827.561 392.603 826.592 388.509 825.752 384.358ZM825.752 384.358C823.516 373.222 822.361 362.127 822.223 351.168H822.215V396.625H828.676C827.561 392.603 826.592 388.509 825.752 384.358ZM825.752 384.358C823.516 373.222 822.361 362.127 822.223 351.168H822.215V396.625H828.676C827.561 392.603 826.592 388.509 825.752 384.358ZM825.752 384.358C823.516 373.222 822.361 362.127 822.223 351.168H822.215V396.625H828.676C827.561 392.603 826.592 388.509 825.752 384.358ZM776.759 214.807V260.263H822.215V214.807H776.759ZM867.688 214.807V260.263H913.145V214.807H867.688Z" fill="url(#paint0_linear_1711_45583)"></path>
<path d="M889.944 141.716H844.487V187.172H889.944V141.716Z" fill="url(#paint1_linear_1711_45583)"></path>
<path d="M895.193 498.859H849.736V544.316H895.193V498.859Z" fill="url(#paint2_linear_1711_45583)"></path>
<path d="M799.653 158.351H754.196V203.808H799.653V158.351Z" fill="url(#paint3_linear_1711_45583)"></path>
<path d="M710.452 147.021H664.995V192.478H710.452V147.021Z" fill="#2EC08B"></path>
<path d="M692.637 508.599H647.181V554.055H692.637V508.599Z" fill="#2EC08B"></path>
<path d="M802.027 522.198H756.57V567.654H802.027V522.198Z" fill="url(#paint4_linear_1711_45583)"></path>
</g>
<defs>
<linearGradient id="paint0_linear_1711_45583" x1="776.767" y1="351.16" x2="958.601" y2="351.16" gradientUnits="userSpaceOnUse">
<stop stop-color="#2EC08B"></stop>
<stop offset="0.2" stop-color="#37ACAD"></stop>
<stop offset="0.41" stop-color="#3F9CCB"></stop>
<stop offset="0.61" stop-color="#4590E0"></stop>
<stop offset="0.81" stop-color="#4889ED"></stop>
<stop offset="1" stop-color="#4A87F2"></stop>
</linearGradient>
<linearGradient id="paint1_linear_1711_45583" x1="844.487" y1="164.44" x2="889.936" y2="164.44" gradientUnits="userSpaceOnUse">
<stop stop-color="#2EC08B"></stop>
<stop offset="0.2" stop-color="#37ACAD"></stop>
<stop offset="0.41" stop-color="#3F9CCB"></stop>
<stop offset="0.61" stop-color="#4590E0"></stop>
<stop offset="0.81" stop-color="#4889ED"></stop>
<stop offset="1" stop-color="#4A87F2"></stop>
</linearGradient>
<linearGradient id="paint2_linear_1711_45583" x1="849.736" y1="521.584" x2="895.185" y2="521.584" gradientUnits="userSpaceOnUse">
<stop stop-color="#2EC08B"></stop>
<stop offset="0.2" stop-color="#37ACAD"></stop>
<stop offset="0.41" stop-color="#3F9CCB"></stop>
<stop offset="0.61" stop-color="#4590E0"></stop>
<stop offset="0.81" stop-color="#4889ED"></stop>
<stop offset="1" stop-color="#4A87F2"></stop>
</linearGradient>
<linearGradient id="paint3_linear_1711_45583" x1="754.196" y1="181.075" x2="799.653" y2="181.075" gradientUnits="userSpaceOnUse">
<stop stop-color="#2EC08B"></stop>
<stop offset="0.2" stop-color="#37ACAD"></stop>
<stop offset="0.41" stop-color="#3F9CCB"></stop>
<stop offset="0.61" stop-color="#4590E0"></stop>
<stop offset="0.81" stop-color="#4889ED"></stop>
<stop offset="1" stop-color="#4A87F2"></stop>
</linearGradient>
<linearGradient id="paint4_linear_1711_45583" x1="756.57" y1="544.922" x2="802.027" y2="544.922" gradientUnits="userSpaceOnUse">
<stop stop-color="#2EC08B"></stop>
<stop offset="0.2" stop-color="#37ACAD"></stop>
<stop offset="0.41" stop-color="#3F9CCB"></stop>
<stop offset="0.61" stop-color="#4590E0"></stop>
<stop offset="0.81" stop-color="#4889ED"></stop>
<stop offset="1" stop-color="#4A87F2"></stop>
</linearGradient>
<clipPath id="clip0_1711_45583">
<rect width="1632" height="700.009" fill="white"></rect>
</clipPath>
</defs>
</svg>
