<svg xmlns="http://www.w3.org/2000/svg" fill="none" viewBox="0 0 1632 700" height="700" width="1632">
<g clip-path="url(#clip0_1708_645)">
<rect fill="#3C315B" height="700" width="1632"></rect>
<path fill-opacity="0.05" fill="#FFFDF8" d="M-58.9719 628.258C-34.0879 627.651 -15.9141 605.597 -5.17034 588.257C-6.43553 592.066 -7.09748 595.86 -7.00905 599.485C-6.76585 609.454 -0.861794 616.413 10.4491 616.137C25.9828 615.758 42.2405 601.76 50.4794 586.899C49.9277 589.029 49.674 590.999 49.7182 592.812C49.8877 599.76 53.9157 604.044 61.9088 603.849C87.0944 603.235 111.344 558.06 110.393 519.092C109.653 488.734 93.6175 462.375 55.0095 463.317C-12.856 464.973 -83.9807 549.526 -82.6763 602.994C-82.1641 623.988 -70.7353 628.545 -58.9719 628.258ZM32.9454 517.657C32.7612 510.105 36.8549 504.716 43.0383 504.565C49.0707 504.418 53.4225 509.601 53.6067 517.153C53.791 524.705 49.7008 530.245 43.6684 530.393C37.485 530.543 33.1296 525.209 32.9454 517.657ZM65.2193 516.87C65.035 509.318 69.1288 503.929 75.3121 503.778C81.3446 503.63 85.6963 508.814 85.8806 516.366C86.0648 523.918 81.9747 529.458 75.9422 529.605C69.7589 529.756 65.4035 524.422 65.2193 516.87Z"></path>
<path fill-opacity="0.05" fill="#FFFDF8" d="M971.883 -11.7126C1024.18 0.949823 1059.18 26.5435 1059.18 26.5435C1084.11 42.2893 1090.65 76.6803 1073.78 103.369C1056.93 130.058 1023.05 138.921 998.138 123.177C998.138 123.177 959.987 102.562 926.092 60.7723L925.579 60.8833C912.916 113.181 887.323 148.181 887.323 148.181C871.577 173.108 837.186 179.649 810.498 162.785C783.808 145.931 774.945 112.054 790.69 87.1383C790.69 87.1383 811.305 48.9874 853.094 15.0921L852.983 14.5788C800.685 1.91639 765.685 -23.6772 765.685 -23.6772C740.759 -39.4231 734.217 -73.814 751.082 -100.502C767.935 -127.192 801.812 -136.055 826.728 -120.31C826.728 -120.31 864.879 -99.6955 898.774 -57.906L899.287 -58.017C911.95 -110.315 937.544 -145.315 937.544 -145.315C953.289 -170.241 987.68 -176.783 1014.37 -159.918C1041.06 -143.064 1049.92 -109.188 1034.18 -84.2721C1034.18 -84.2721 1013.56 -46.1212 971.772 -12.2258L971.883 -11.7126Z"></path>
<path fill-opacity="0.05" fill="#FFFDF8" d="M1479.72 729.74C1504.03 771.189 1509.31 809.55 1509.31 809.55C1514.66 835.331 1496.63 860.871 1469.02 866.597C1441.42 872.331 1414.71 856.071 1409.36 830.298C1409.36 830.298 1398.93 793.002 1404.74 745.301L1404.36 745.041C1362.91 769.355 1324.55 774.632 1324.55 774.632C1298.76 779.984 1273.23 761.953 1267.5 734.346C1261.76 706.746 1278.03 680.034 1303.8 674.688C1303.8 674.688 1341.09 664.258 1388.79 670.07L1389.06 669.68C1364.74 628.232 1359.46 589.871 1359.46 589.871C1354.11 564.09 1372.14 538.55 1399.75 532.824C1427.35 527.09 1454.06 543.35 1459.41 569.123C1459.41 569.123 1469.84 606.419 1464.03 654.12L1464.42 654.381C1505.86 630.066 1544.23 624.789 1544.23 624.789C1570.01 619.437 1595.55 637.468 1601.27 665.075C1607.01 692.675 1590.75 719.387 1564.97 724.733C1564.97 724.733 1527.68 735.163 1479.98 729.351L1479.72 729.74Z"></path>
<path fill-opacity="0.05" fill="#FFFDF8" d="M1353.65 238.352C1353.65 238.352 1332.52 247.16 1308.75 232.268C1284.97 217.382 1267.91 198.482 1256.43 182.195C1244.94 165.907 1228.02 149.813 1214.68 142.204C1201.34 134.595 1174.66 124.054 1183.28 108.161C1191.89 92.2682 1234.78 116.286 1250.89 129.896C1250.89 129.896 1232.2 103.735 1214.23 89.5099C1196.27 75.2817 1189.43 63.8386 1195.11 54.4307C1203.48 40.5775 1248.89 68.7068 1279.34 105.998C1279.34 105.998 1238.76 60.0029 1224.7 44.9695C1210.64 29.9414 1205.94 24.0189 1213.08 12.443C1220.22 0.867106 1243.22 15.0687 1260.21 31.2301C1277.2 47.3946 1302.24 80.0208 1302.24 80.0208C1302.24 80.0208 1284.93 55.262 1306.56 29.8431C1311.52 24.022 1318.8 20.7399 1326.44 20.9756C1333.81 21.2055 1343.89 23.4214 1355.48 31.0629C1379.76 47.0678 1382.98 54.7164 1375.06 67.5884C1368.57 78.133 1343.49 65.03 1335.71 61.877C1334.02 61.1929 1332.04 61.8257 1331.16 63.4205C1329.25 66.8357 1328.29 79.2639 1339.05 95.964C1355.71 121.815 1377.46 128.887 1381.82 124.824C1386.19 120.76 1394.57 116.108 1379.65 89.1631C1364.74 62.2182 1387.88 54.7214 1398.88 64.0623C1409.87 73.4032 1441.05 104.916 1423.68 159.759C1406.32 214.603 1363.19 236.131 1353.66 238.352L1353.65 238.352Z"></path>
<path fill-opacity="0.05" fill="#FFFDF8" d="M1442.38 0.439931C1446.59 5.35224 1444.78 13.1899 1438.56 17.1766L1400.46 38.631C1396.52 40.8472 1393.11 36.252 1396.17 32.8544L1425.66 0.0439517C1425.79 -0.0921741 1425.92 -0.228301 1426.06 -0.334614C1431.35 -4.36183 1438.58 -4.03495 1442.36 0.441331L1442.38 0.439931Z"></path>
<path fill-opacity="0.05" fill="#FFFDF8" d="M1392.85 -33.8595C1399.24 -32.8942 1403 -25.7824 1400.9 -18.6999L1386.1 22.4479C1384.57 26.6997 1378.99 25.4534 1379.08 20.8823L1379.94 -23.2283C1379.95 -23.4152 1379.96 -23.602 1379.99 -23.7759C1381.36 -30.2813 1387.05 -34.764 1392.83 -33.8483L1392.85 -33.8595Z"></path>
<path fill-opacity="0.05" fill="#FFFDF8" d="M614.814 159.772C614.255 158.074 614.384 156.181 615.227 154.534L691.079 5.2205C692.466 2.48955 696.452 2.79759 697.399 5.70571L711.908 50.1879C712.467 51.8858 712.337 53.7788 711.494 55.4262L635.642 204.739C634.256 207.47 630.269 207.162 629.322 204.254L614.814 159.772Z"></path>
<path fill-opacity="0.05" fill="#FFFDF8" d="M504.693 103.829C504.165 102.081 504.294 100.188 505.107 98.5903L580.959 -50.7229C582.345 -53.4538 586.331 -53.1458 587.278 -50.2377L601.787 -5.75552C602.346 -4.05759 602.216 -2.16454 601.373 -0.517115L525.521 148.796C524.135 151.527 520.149 151.219 519.201 148.311L504.693 103.829Z"></path>
<path fill-opacity="0.05" fill="#FFFDF8" d="M623.567 5.31479C621.87 5.87372 620.418 7.08682 619.583 8.73313L543.732 158.046C542.345 160.777 544.945 163.816 547.852 162.86L592.334 148.352C594.032 147.793 595.484 146.579 596.318 144.933L672.17 -4.38003C673.557 -7.11098 670.956 -10.15 668.049 -9.19361L623.567 5.31479Z"></path>
<path fill-opacity="0.05" fill="#FFFDF8" d="M802.233 731.197C801.544 729.905 801.384 728.36 801.834 726.913L842.166 595.833C842.903 593.436 846.162 593.127 847.333 595.342L865.257 629.205C865.946 630.497 866.106 632.042 865.655 633.489L825.324 764.569C824.587 766.966 821.328 767.275 820.157 765.061L802.233 731.197Z"></path>
<path fill-opacity="0.05" fill="#FFFDF8" d="M705.56 701.451C704.889 700.114 704.729 698.569 705.161 697.166L745.493 566.087C746.23 563.69 749.489 563.381 750.66 565.595L768.584 599.459C769.273 600.751 769.433 602.296 768.982 603.743L728.651 734.823C727.914 737.22 724.655 737.528 723.484 735.314L705.56 701.451Z"></path>
<path fill-opacity="0.05" fill="#FFFDF8" d="M787.706 605.346C786.414 606.035 785.412 607.216 784.969 608.661L744.637 739.741C743.9 742.138 746.423 744.227 748.635 743.049L782.498 725.124C783.79 724.436 784.792 723.254 785.235 721.809L825.567 590.73C826.303 588.333 823.781 586.244 821.569 587.422L787.706 605.346Z"></path>
<path fill-opacity="0.05" fill="#FFFDF8" d="M284.176 497.266C283.784 498.423 282.937 499.404 281.8 499.958L179.097 550.412C177.22 551.335 175.168 549.531 175.844 547.554L186.168 517.299C186.559 516.142 187.407 515.161 188.543 514.607L291.246 464.153C293.124 463.23 295.176 465.034 294.5 467.011L284.176 497.266Z"></path>
<path fill-opacity="0.05" fill="#FFFDF8" d="M321.385 573.012C320.957 574.183 320.109 575.165 319.01 575.704L216.307 626.158C214.429 627.081 212.378 625.277 213.053 623.299L223.378 593.045C223.769 591.888 224.616 590.906 225.753 590.353L328.456 539.899C330.334 538.976 332.385 540.779 331.71 542.757L321.385 573.012Z"></path>
<path fill-opacity="0.05" fill="#FFFDF8" d="M216.02 578.06C217.177 578.451 218.468 578.384 219.599 577.827L322.302 527.374C324.18 526.45 324.006 523.723 322.026 523.053L291.771 512.729C290.614 512.337 289.323 512.405 288.192 512.962L185.489 563.415C183.611 564.339 183.785 567.066 185.765 567.736L216.02 578.06Z"></path>
<path fill-opacity="0.05" fill="#FFFDF8" d="M1209.04 576.71C1208.76 575.275 1209.05 573.749 1209.9 572.494L1286.39 458.661C1287.79 456.579 1291 457.226 1291.48 459.684L1298.85 497.282C1299.14 498.718 1298.84 500.243 1297.99 501.499L1221.51 615.331C1220.11 617.413 1216.9 616.767 1216.42 614.309L1209.04 576.71Z"></path>
<path fill-opacity="0.05" fill="#FFFDF8" d="M1125.09 520.297C1124.83 518.824 1125.13 517.298 1125.95 516.08L1202.44 402.248C1203.83 400.166 1207.04 400.813 1207.52 403.27L1214.9 440.869C1215.18 442.304 1214.89 443.83 1214.04 445.086L1137.55 558.918C1136.15 561 1132.94 560.353 1132.46 557.895L1125.09 520.297Z"></path>
<path fill-opacity="0.05" fill="#FFFDF8" d="M1231.5 452.031C1230.07 452.317 1228.77 453.158 1227.92 454.414L1151.44 568.246C1150.04 570.328 1151.85 573.056 1154.31 572.568L1191.91 565.194C1193.34 564.908 1194.64 564.067 1195.48 562.811L1271.97 448.979C1273.37 446.897 1271.56 444.168 1269.1 444.657L1231.5 452.031Z"></path>
<path fill-opacity="0.05" fill="#FFFDF8" d="M391.199 294.236L369.615 374.438C368.627 378.12 372.81 380.558 375.555 377.904L453.073 303.107C454.882 301.362 454.719 298.425 452.736 297.164L433.933 285.203C432.642 284.383 432.054 282.773 432.467 281.185L452.985 202.68C453.944 199.014 449.794 196.602 447.05 199.223L370.652 272.282C368.828 274.023 368.989 276.968 370.978 278.239L389.745 290.181C391.043 291.003 391.633 292.637 391.204 294.221L391.199 294.236Z"></path>
<path fill-opacity="0.05" fill="#FFFDF8" d="M150.534 -39.6582C157.102 32.4791 214.362 117.143 281.129 146.257C281.651 146.483 282.334 146.183 282.577 146.851C282.717 146.891 282.867 146.93 283.007 146.97C283.368 146.804 283.562 146.958 283.652 147.308C325.547 162.495 349.057 130.335 343.966 90.727C343.762 90.5403 343.638 90.3349 343.843 90.0679C343.834 89.9018 343.829 89.7301 343.821 89.564C339.127 65.6083 347.799 79.9231 360.169 85.2413C409.7 105.244 406.627 40.3985 391.698 11.6993C378.729 -18.2142 357.983 -49.207 326.347 -60.8377C325.674 -61.1705 324.768 -60.7338 324.285 -61.3608C322.727 -61.7388 321.15 -61.9952 319.553 -62.1054C318.929 -61.6039 318.368 -62.2617 317.702 -62.1768C300.509 -63.398 293.028 -46.5148 290.71 -32.1505C290.815 -32.0256 290.924 -31.9063 290.672 -31.8236C289.794 -29.9029 288.383 -31.2034 287.025 -32.4242C266.431 -56.6795 242.192 -79.5394 212.351 -91.2813C176.217 -105.477 148.552 -82.808 150.174 -45.2805C150.622 -44.8546 150.146 -44.2651 150.225 -43.7215C150.74 -43.1889 150.315 -42.6229 150.298 -42.0038C150.721 -41.5785 150.38 -41.0712 150.393 -40.5656C150.646 -40.2937 150.659 -39.9903 150.528 -39.6622L150.534 -39.6582Z"></path>
<path fill-opacity="0.05" fill="#FFFDF8" d="M503.732 591.286C523.151 615.891 558.565 628.779 589.286 624.237C590.48 624.02 591.552 623.469 592.763 623.478C638.724 601.316 574.794 561.494 548.208 558.113C525.102 550.878 482.577 560.134 503.732 591.286Z"></path>
<path fill-opacity="0.05" fill="#FFFDF8" d="M107.923 768.918C148.986 766.368 189.369 737.803 207.442 701.267C208.101 699.818 208.307 698.249 209.223 696.95C219.683 630.799 128.923 669.984 105.396 696.136C80.3139 715.651 58.5003 768.445 107.923 768.918Z"></path>
<path fill-opacity="0.05" fill="#FFFDF8" d="M293.205 755.776C344.293 807.128 442.403 835.779 512.389 815.592C512.935 815.433 513.27 814.767 513.883 815.126C514.017 815.067 514.156 815.002 514.29 814.943C514.462 814.585 514.71 814.58 515.002 814.792C556.95 799.753 554.531 759.99 525.338 732.741C525.062 732.728 524.835 732.649 524.823 732.312C524.71 732.19 524.597 732.061 524.484 731.938C505.585 716.488 521.395 721.977 534.314 718.178C585.214 701.975 541.471 654.007 511.663 641.435C482.591 626.678 446.841 616.052 415.061 627.284C414.33 627.457 413.911 628.372 413.139 628.197C411.698 628.9 410.32 629.709 409.021 630.643C408.86 631.427 408.008 631.279 407.55 631.769C393.533 641.799 398.545 659.572 405.926 672.112C406.087 672.141 406.247 672.163 406.106 672.388C406.655 674.426 404.739 674.326 402.914 674.253C371.58 668.718 338.331 666.583 307.862 676.583C270.982 688.71 264.146 723.817 289.34 751.676C289.957 751.719 289.967 752.476 290.375 752.844C291.111 752.925 291.145 753.633 291.527 754.12C292.124 754.178 292.185 754.786 292.517 755.167C292.886 755.215 293.09 755.44 293.198 755.776L293.205 755.776Z"></path>
<path fill-opacity="0.05" fill="#FFFDF8" d="M1629.54 320.145C1642.96 277.495 1668.63 236.053 1707.65 212.242C1760.75 178.751 1805.42 216.401 1800.69 274.767C1797.69 327.993 1773.22 379.763 1734.53 416.391C1692.86 458.704 1619.2 474.834 1585.7 414.478C1554.48 449.804 1492.58 465.345 1468.47 414.402C1411.64 453.293 1401 384.092 1426.81 345.039C1445.41 307.981 1502.95 286.414 1501.95 346.053C1513.94 312.386 1535.07 278.582 1568.76 263.237C1610.26 244.084 1634.33 282.11 1629.58 320.167C1629.43 320.189 1629.4 320.226 1629.49 320.272C1629.51 320.234 1629.53 320.184 1629.56 320.146L1629.54 320.145Z"></path>
<path fill-opacity="0.05" fill="#FFFDF8" d="M-125.042 336.863C-143.244 344.854 -151.523 366.087 -143.532 384.289C-135.542 402.491 -114.309 410.769 -96.1069 402.779L30.4291 347.233C44.6735 340.98 52.8404 326.617 51.8892 311.944L62.9964 296.823C64.8018 294.365 63.2696 290.875 60.2384 290.54L41.3519 288.455C41.243 288.443 41.1351 288.435 41.0283 288.432C30.8358 278.553 15.2937 275.26 1.49389 281.317L-125.042 336.863Z" clip-rule="evenodd" fill-rule="evenodd"></path>
<path fill-opacity="0.05" fill="#FFFDF8" d="M247.914 323.503C242.668 323.681 186.948 333.903 173.905 304.39C163.058 279.858 191.297 266.483 204.156 275.03C196.968 261.361 213.562 234.847 236.4 247.875C264.415 263.844 248.615 318.298 247.909 323.52L247.914 323.503Z"></path>
<ellipse fill-opacity="0.05" fill="#FFFDF8" transform="rotate(22.4195 5.03898 54.264)" ry="99.6224" rx="47.6459" cy="54.264" cx="5.03898"></ellipse>
<path fill-opacity="0.05" fill="#FFFDF8" d="M748.602 478.689C763.263 487.508 769.939 487.191 785.378 476.524C786.692 475.613 788.308 477.196 787.418 478.535C777.031 494.174 776.829 500.866 785.896 515.39C786.712 516.701 785.229 518.213 783.908 517.414C769.247 508.595 762.571 508.911 747.132 519.578C745.818 520.489 744.203 518.907 745.092 517.568C755.479 501.928 755.682 495.237 746.614 480.712C745.798 479.402 747.281 477.89 748.602 478.689Z"></path>
<path fill-opacity="0.05" fill="#FFFDF8" d="M1604.16 120.392C1565.93 127.791 1555.12 138.489 1545.24 180.037C1544.4 183.579 1539.26 183.361 1538.72 179.742C1532.49 137.47 1522.64 125.842 1485.19 115.073C1481.82 114.098 1482.03 109.283 1485.48 108.623C1523.71 101.225 1534.52 90.5266 1544.4 48.9787C1545.24 45.4369 1550.38 45.655 1550.91 49.2737C1557.15 91.5454 1566.99 103.174 1604.44 113.943C1607.82 114.918 1607.61 119.733 1604.16 120.392Z"></path>
<circle fill-opacity="0.05" fill="#FFFDF8" transform="rotate(-105 104.425 193.425)" r="18.31" cy="193.425" cx="104.425"></circle>
<path fill-opacity="0.05" fill="#FFFDF8" d="M174.05 381.227L108.873 345.62C107.717 344.991 106.373 346.067 106.749 347.337L127.997 418.282C128.376 419.54 130.088 419.718 130.71 418.548L139.801 401.507C140.311 400.559 141.627 400.456 142.276 401.315L160.874 425.768C161.367 426.415 162.292 426.537 162.939 426.046L172.851 418.533C173.498 418.042 173.619 417.118 173.127 416.472L154.553 392.054C153.935 391.245 154.307 390.066 155.288 389.756L173.78 383.922C175.017 383.535 175.185 381.848 174.039 381.223L174.05 381.227Z"></path>
<ellipse fill-opacity="0.05" fill="#FFFDF8" transform="rotate(-123.77 1197.57 286.111)" ry="64.6343" rx="33.9031" cy="286.111" cx="1197.57"></ellipse>
<path fill-opacity="0.05" fill="#FFFDF8" d="M464.283 498.725C445.009 507.199 440.587 514.134 440.346 537.225C440.329 539.193 437.591 539.693 436.877 537.849C428.533 516.304 421.951 511.349 400.914 510.15C399.017 510.04 398.551 507.476 400.292 506.716C419.565 498.241 423.987 491.306 424.228 468.215C424.246 466.247 426.983 465.747 427.697 467.591C436.042 489.137 442.623 494.091 463.66 495.29C465.557 495.4 466.024 497.964 464.283 498.725Z"></path>
<ellipse fill-opacity="0.05" fill="#FFFDF8" transform="rotate(154.617 1048.86 747.394)" ry="116.548" rx="58.5476" cy="747.394" cx="1048.86"></ellipse>
<circle fill-opacity="0.05" fill="#FFFDF8" transform="rotate(-105 942.795 560.795)" r="30.0432" cy="560.795" cx="942.795"></circle>
<path fill="#AB9FF2" d="M590.601 430C614.974 430 633.29 408.81 644.221 392.065C642.892 395.77 642.153 399.474 642.153 403.031C642.153 412.811 647.767 419.775 658.845 419.775C674.06 419.775 690.309 406.439 698.729 392.065C698.138 394.14 697.842 396.066 697.842 397.844C697.842 404.661 701.683 408.958 709.512 408.958C734.181 408.958 758.997 365.244 758.997 327.013C758.997 297.228 743.93 271 706.114 271C639.642 271 568 352.204 568 404.661C568 425.258 579.079 430 590.601 430ZM683.218 323.753C683.218 316.344 687.355 311.158 693.411 311.158C699.32 311.158 703.456 316.344 703.456 323.753C703.456 331.162 699.32 336.497 693.411 336.497C687.355 336.497 683.218 331.162 683.218 323.753ZM714.83 323.753C714.83 316.344 718.966 311.158 725.022 311.158C730.931 311.158 735.067 316.344 735.067 323.753C735.067 331.162 730.931 336.497 725.022 336.497C718.966 336.497 714.83 331.162 714.83 323.753Z"></path>
<path fill="#FFFFC4" d="M812.523 332.682C825.295 341.364 830.933 341.348 843.565 332.207C844.64 331.426 846.072 332.943 845.374 334.133C837.223 348.038 837.326 354.162 845.598 367.843C846.342 369.078 845.149 370.402 843.998 369.616C831.226 360.933 825.588 360.949 812.957 370.09C811.881 370.871 810.449 369.355 811.147 368.165C819.298 354.259 819.195 348.136 810.923 334.454C810.179 333.22 811.372 331.895 812.523 332.682Z"></path>
<rect fill="#7F5FC6" rx="42" height="156" width="157" y="274" x="901"></rect>
<path fill="#1C1C1C" d="M944.121 301.943H1014.97V316.153H1035.13L1030.9 330.362H1027.33V387.847C1029.12 387.847 1030.58 389.293 1030.58 391.077V394.952H1031.23C1033.02 394.952 1034.48 396.398 1034.48 398.182V402.057H998.074V398.182C998.074 396.398 999.529 394.952 1001.32 394.952H1001.97V391.077C1001.97 389.514 1003.09 388.211 1004.57 387.912V356.198H1004.47C1003.32 343.524 992.603 333.592 979.548 333.592C966.493 333.592 955.773 343.524 954.623 356.198H954.521V387.847H955.171C956.966 387.847 958.422 389.293 958.422 391.077V394.952H959.072C960.867 394.952 962.322 396.398 962.322 398.182V402.057L954.521 402.057H944.121L925.92 402.057V398.182C925.92 396.398 927.375 394.952 929.17 394.952H929.82V391.077C929.82 389.293 931.275 387.847 933.07 387.847V330.362H929.495L925.27 316.153H944.121V301.943Z" clip-rule="evenodd" fill-rule="evenodd"></path>
</g>
<defs>
<clipPath id="clip0_1708_645">
<rect fill="white" height="700" width="1632"></rect>
</clipPath>
</defs>
</svg>
