<svg width="1632" height="701" viewBox="0 0 1632 701" fill="none" xmlns="http://www.w3.org/2000/svg">
<rect width="1632" height="700.009" fill="#FFFDF8"></rect>
<path d="M1632 0H0V700H1632V0Z" fill="#3A3158"></path>
<mask id="mask0_703_38622" style="mask-type:luminance" maskUnits="userSpaceOnUse" x="0" y="0" width="1632" height="700">
<path d="M1632 0H0V700H1632V0Z" fill="white"></path>
</mask>
<g mask="url(#mask0_703_38622)">
<g opacity="0.1">
<path d="M578.29 807.99C564.7 706.13 486.43 610.55 392.21 571.93C388.49 570.55 384.54 570.31 381.15 568.25C214.49 553.83 328.1 773.06 397.4 827.09C450.45 886.16 585.81 931.2 578.29 807.99Z" fill="#FFFDF8"></path>
<path d="M1437.12 519.83C1375.28 274.79 1131.96 14.15 886.05 -49.89C884.13 -50.38 881.95 -48.98 880.73 -51.16C880.21 -51.21 879.7 -51.27 879.18 -51.32C878.03 -50.55 877.28 -50.97 876.78 -52.13C724.15 -81.71 660.61 41.89 699.68 175.62C700.49 176.16 701.02 176.79 700.46 177.81C700.57 178.39 700.69 178.96 700.8 179.54C729.99 259.55 692.33 214.93 646.8 203.33C465.23 161.32 511.08 383.11 578.11 473.9C639.05 569.94 727.39 665.47 842.74 688.36C845.24 689.14 848.13 687.13 850.12 689.05C855.69 689.51 861.26 689.54 866.83 689.05C868.7 686.97 871 688.95 873.24 688.29C933.16 683.17 949.76 620.91 949.94 570.14C949.51 569.78 949.06 569.42 949.89 569C951.87 561.91 957.45 565.63 962.79 569.09C1046.94 641.48 1142.9 707.08 1252.11 731.33C1384.34 760.6 1467.37 667.47 1441.39 539.01C1439.61 537.78 1440.94 535.49 1440.35 533.67C1438.28 532.11 1439.44 529.94 1439.17 527.79C1437.47 526.56 1438.39 524.63 1438.07 522.88C1437.06 522.09 1436.84 521.04 1437.11 519.84L1437.12 519.83Z" fill="#FFFDF8"></path>
</g>
</g>
<path d="M831 207.93C831 202.918 830.335 203.503 825.433 202.794C790.903 197.836 791.245 192.966 756.374 192.966C721.502 192.966 721.502 202.848 686.622 202.848C651.742 202.848 651.751 192.966 616.871 192.966C581.991 192.966 582 202.848 547.12 202.848C512.24 202.848 512.249 192.966 477.369 192.966C442.489 192.966 442.498 202.848 407.626 202.848C372.755 202.848 371.722 188.053 337.193 193.02L333 258.07C333 263.082 333.665 262.497 338.567 263.206C373.097 268.164 372.755 273.034 407.626 273.034C442.498 273.034 442.498 263.152 477.378 263.152C512.249 263.152 512.249 273.034 547.129 273.034C582 273.034 582 263.152 616.88 263.152C651.751 263.152 651.751 273.034 686.631 273.034C721.502 273.034 721.502 263.152 756.374 263.152C791.245 263.152 792.278 277.947 826.807 272.98" fill="#ED7A50"></path>
<path d="M831 277.736C831 272.785 830.335 273.363 825.433 272.663C790.903 267.765 791.245 262.955 756.374 262.955C721.502 262.955 721.502 272.715 686.622 272.715C651.742 272.715 651.751 262.955 616.871 262.955C581.991 262.955 582 272.715 547.12 272.715C512.24 272.715 512.249 262.955 477.369 262.955C442.489 262.955 442.498 272.715 407.626 272.715C372.755 272.715 371.722 258.101 337.193 263.007L333 327.264C333 332.215 333.665 331.637 338.567 332.337C373.097 337.235 372.755 342.045 407.626 342.045C442.498 342.045 442.498 332.285 477.378 332.285C512.249 332.285 512.249 342.045 547.129 342.045C582.009 342.045 582 332.285 616.88 332.285C651.76 332.285 651.751 342.045 686.631 342.045C721.502 342.045 721.502 332.285 756.374 332.285C791.245 332.285 792.278 346.899 826.807 341.993" fill="#F7D25D"></path>
<path d="M831 346.736C831 341.785 830.335 342.363 825.433 341.663C790.903 336.765 791.245 331.955 756.374 331.955C721.502 331.955 721.502 341.715 686.622 341.715C651.742 341.715 651.751 331.955 616.871 331.955C581.991 331.955 582 341.715 547.12 341.715C512.24 341.715 512.249 331.955 477.369 331.955C442.489 331.955 442.498 341.715 407.626 341.715C372.755 341.715 371.722 327.101 337.193 332.007L333 396.264C333 401.215 333.665 400.638 338.567 401.337C373.097 406.235 372.755 411.045 407.626 411.045C442.498 411.045 442.498 401.285 477.378 401.285C512.249 401.285 512.249 411.045 547.129 411.045C582 411.045 582 401.285 616.88 401.285C651.751 401.285 651.751 411.045 686.631 411.045C721.502 411.045 721.502 401.285 756.374 401.285C791.245 401.285 792.278 415.899 826.807 410.993" fill="#60BC8E"></path>
<path d="M831 416.736C831 411.785 830.335 412.362 825.433 411.663C790.903 406.765 791.245 401.955 756.374 401.955C721.502 401.955 721.502 411.715 686.622 411.715C651.742 411.715 651.751 401.955 616.871 401.955C581.991 401.955 582 411.715 547.12 411.715C512.24 411.715 512.249 401.955 477.369 401.955C442.489 401.955 442.498 411.715 407.626 411.715C372.755 411.715 371.722 397.101 337.193 402.007L333 466.264C333 471.215 333.665 470.638 338.567 471.337C373.097 476.235 372.755 481.045 407.626 481.045C442.498 481.045 442.498 471.285 477.378 471.285C512.258 471.285 512.249 481.045 547.129 481.045C582 481.045 582 471.285 616.88 471.285C651.751 471.285 651.751 481.045 686.631 481.045C721.502 481.045 721.502 471.285 756.374 471.285C791.245 471.285 792.278 485.899 826.807 480.993" fill="#5985EA"></path>
<path d="M509.336 348.624C509.336 348.624 468.966 325.312 472.29 304.922C475.614 284.531 499.513 287.321 510.438 300.145C518.451 309.549 531.809 321.122 578.424 328.234C622.556 334.961 639.85 352.123 645.606 362.516C650.662 371.639 640.961 396.281 619.625 385.259C597.074 373.607 591.808 367.493 556.905 362.358C522.003 357.232 509.327 348.633 509.327 348.633L509.336 348.624Z" fill="#E6E4E0"></path>
<path d="M1059.46 488.428C1059.88 500.141 1059.3 515.887 1059.3 515.887C1059.37 525.693 1052.75 531.466 1045.3 531.466C1037.85 531.466 1031.83 526.568 1031.83 519.115C1031.83 525.938 1026.3 531.466 1019.48 531.466C1013.13 531.466 1007.9 526.664 1007.2 520.497C1006.52 526.664 1001.29 531.466 994.931 531.466C992.797 531.466 990.793 530.924 989.044 529.979C984.163 527.329 981.836 521.581 983.192 516.184C983.568 514.671 985.387 508.215 985.702 504.795C986.673 494.245 984.346 488.822 984.346 488.822L1059.46 488.419V488.428Z" fill="#E6E4E0"></path>
<path d="M962.337 488.428C962.757 500.141 962.171 515.887 962.171 515.887C962.25 525.693 955.628 531.466 948.175 531.466C940.722 531.466 934.704 526.568 934.704 519.115C934.704 525.938 929.175 531.466 922.352 531.466C916.001 531.466 910.77 526.664 910.079 520.497C909.397 526.664 904.166 531.466 897.807 531.466C895.672 531.466 893.669 530.924 891.919 529.979C887.038 527.329 884.711 521.581 886.067 516.184C886.443 514.671 888.263 508.215 888.578 504.795C889.549 494.245 887.222 488.822 887.222 488.822L962.337 488.419V488.428Z" fill="#E6E4E0"></path>
<path d="M808.897 488.428C809.317 500.141 808.731 515.887 808.731 515.887C808.809 525.693 802.188 531.466 794.735 531.466C787.282 531.466 781.263 526.568 781.263 519.115C781.263 525.938 775.735 531.466 768.912 531.466C762.561 531.466 757.33 526.664 756.639 520.497C755.957 526.664 750.726 531.466 744.366 531.466C742.232 531.466 740.228 530.924 738.479 529.979C733.598 527.329 731.271 521.581 732.627 516.184C733.003 514.671 734.823 508.215 735.137 504.795C736.108 494.245 733.782 488.822 733.782 488.822L808.897 488.419V488.428Z" fill="#E6E4E0"></path>
<path d="M705.247 488.428C705.667 500.141 705.081 515.887 705.081 515.887C705.16 525.693 698.538 531.466 691.085 531.466C683.632 531.466 677.613 526.568 677.613 519.115C677.613 525.938 672.085 531.466 665.262 531.466C658.911 531.466 653.68 526.664 652.989 520.497C652.307 526.664 647.076 531.466 640.716 531.466C638.582 531.466 636.579 530.924 634.829 529.979C629.948 527.329 627.621 521.581 628.977 516.184C629.353 514.671 631.173 508.215 631.488 504.795C632.458 494.245 630.132 488.822 630.132 488.822L705.247 488.419V488.428Z" fill="#E6E4E0"></path>
<path d="M1059.22 499.765L1048.95 498.2C1045.89 497.736 1042.76 497.78 1039.72 498.331L1001.36 505.285C998.054 505.88 994.66 505.88 991.353 505.285L953.398 498.401C950.091 497.806 946.697 497.806 943.39 498.401L905.435 505.285C902.128 505.88 898.734 505.88 895.427 505.285L857.472 498.401C854.165 497.806 850.771 497.806 847.465 498.401L809.509 505.285C806.202 505.88 802.808 505.88 799.502 505.285L761.546 498.401C758.239 497.806 754.845 497.806 751.539 498.401L713.583 505.285C710.285 505.88 706.882 505.88 703.576 505.285L665.218 498.331C662.174 497.78 659.051 497.736 655.989 498.2L645.684 499.765C628.207 502.425 613.126 488.516 616.38 472.718L616.415 472.543C617.097 469.254 616.975 465.86 616.065 462.614L609.443 438.944C608.402 435.217 608.402 431.307 609.443 427.58L615.855 404.662C616.896 400.935 616.896 397.025 615.855 393.299L609.443 370.38C608.402 366.654 608.402 362.743 609.443 359.017L615.855 336.098C616.896 332.372 616.896 328.462 615.855 324.735L609.443 301.817C608.402 298.09 608.402 294.18 609.443 290.454L615.855 267.535C616.896 263.809 616.896 259.898 615.855 256.172L609.443 233.253C608.402 229.527 608.402 225.617 609.443 221.89L616.065 198.211C616.975 194.965 617.089 191.58 616.415 188.282L616.38 188.107C613.126 172.309 628.198 158.4 645.684 161.06L655.98 162.625C659.042 163.089 662.165 163.045 665.209 162.494L703.567 155.54C706.874 154.945 710.268 154.945 713.574 155.54L751.53 162.424C754.837 163.019 758.231 163.019 761.537 162.424L799.493 155.54C802.799 154.945 806.194 154.945 809.5 155.54L847.456 162.424C850.762 163.019 854.156 163.019 857.463 162.424L895.419 155.54C898.725 154.945 902.119 154.945 905.426 155.54L943.382 162.424C946.688 163.019 950.082 163.019 953.389 162.424L991.345 155.54C994.642 154.945 998.045 154.945 1001.35 155.54L1039.71 162.494C1042.75 163.045 1045.88 163.089 1048.94 162.625L1059.24 161.06C1076.72 158.4 1091.8 172.309 1088.55 188.107L1088.51 188.282C1087.83 191.571 1087.95 194.965 1088.86 198.211L1095.48 221.881C1096.53 225.608 1096.53 229.518 1095.48 233.244L1089.07 256.163C1088.03 259.89 1088.03 263.8 1089.07 267.526L1095.48 290.445C1096.53 294.171 1096.53 298.081 1095.48 301.808L1089.07 324.727C1088.03 328.453 1088.03 332.363 1089.07 336.09L1095.48 359.008C1096.53 362.735 1096.53 366.645 1095.48 370.371L1089.07 393.29C1088.03 397.016 1088.03 400.927 1089.07 404.653L1095.49 427.589C1096.53 431.307 1096.53 435.208 1095.49 438.926L1088.85 462.781C1087.95 466.026 1087.84 469.411 1088.51 472.692C1091.78 488.49 1076.7 502.416 1059.22 499.748V499.765Z" fill="#FFFFC9"></path>
<path d="M1041.59 184.844H663.346C650.529 184.844 640.139 195.234 640.139 208.051V452.764C640.139 465.581 650.529 475.972 663.346 475.972H1041.59C1054.41 475.972 1064.8 465.581 1064.8 452.764V208.051C1064.8 195.234 1054.41 184.844 1041.59 184.844Z" fill="#ED7A50"></path>
<path d="M1194.68 341.067L1168.54 246.471C1165.59 235.764 1151.68 233.017 1144.87 241.8L1115.97 284.313C1107.46 282.826 1094.54 282.038 1085.42 282.038C1076.29 282.038 1063.05 282.861 1054.4 284.4L1025.42 241.8C1018.62 233.017 1004.72 235.764 1001.75 246.471L974.243 346.053C972.021 352.631 970.831 359.507 970.831 366.592C970.831 413.296 1022.14 451.155 1085.42 451.155C1148.7 451.155 1200 413.296 1200 366.592C1200 357.696 1198.14 349.115 1194.68 341.067Z" fill="#E6E4E0"></path>
<path d="M1135.53 358.448C1145.43 358.448 1153.46 350.42 1153.46 340.516C1153.46 330.612 1145.43 322.583 1135.53 322.583C1125.63 322.583 1117.6 330.612 1117.6 340.516C1117.6 350.42 1125.63 358.448 1135.53 358.448Z" fill="#FFFDF8"></path>
<path d="M1138.33 355.658C1146.69 355.658 1153.47 348.878 1153.47 340.516C1153.47 332.153 1146.69 325.374 1138.33 325.374C1129.97 325.374 1123.19 332.153 1123.19 340.516C1123.19 348.878 1129.97 355.658 1138.33 355.658Z" fill="#1C1C1C"></path>
<path d="M1035.29 358.448C1045.2 358.448 1053.22 350.42 1053.22 340.516C1053.22 330.612 1045.2 322.583 1035.29 322.583C1025.39 322.583 1017.36 330.612 1017.36 340.516C1017.36 350.42 1025.39 358.448 1035.29 358.448Z" fill="#FFFDF8"></path>
<path d="M1038.09 355.658C1046.45 355.658 1053.23 348.878 1053.23 340.516C1053.23 332.153 1046.45 325.374 1038.09 325.374C1029.73 325.374 1022.95 332.153 1022.95 340.516C1022.95 348.878 1029.73 355.658 1038.09 355.658Z" fill="#1C1C1C"></path>
<path d="M1013.36 396.492C1022.64 396.492 1030.16 388.972 1030.16 379.696C1030.16 370.421 1022.64 362.901 1013.36 362.901C1004.09 362.901 996.566 370.421 996.566 379.696C996.566 388.972 1004.09 396.492 1013.36 396.492Z" fill="#ED7A50"></path>
<path d="M1157.46 396.492C1166.74 396.492 1174.26 388.972 1174.26 379.696C1174.26 370.421 1166.74 362.901 1157.46 362.901C1148.19 362.901 1140.67 370.421 1140.67 379.696C1140.67 388.972 1148.19 396.492 1157.46 396.492Z" fill="#ED7A50"></path>
<path d="M1086.33 382.382L1099.16 371.474C1101.72 369.295 1100.18 365.114 1096.81 365.114L1093.23 365.928C1088.08 367.1 1082.74 367.1 1077.59 365.928L1074 365.114C1070.64 365.114 1069.1 369.304 1071.66 371.474L1084.48 382.382C1085 382.828 1085.78 382.828 1086.32 382.382H1086.33Z" fill="#1C1C1C"></path>
<path d="M1042.18 379.626C1042.18 391.567 1051.85 401.241 1063.79 401.241C1068.79 401.241 1073.4 399.536 1077.07 396.675C1082.14 392.721 1085.41 386.554 1085.41 379.617" stroke="#1C1C1C" stroke-width="4" stroke-miterlimit="10"></path>
<path d="M1128.65 379.626C1128.65 391.567 1118.97 401.241 1107.04 401.241C1102.04 401.241 1097.43 399.536 1093.76 396.675C1088.69 392.721 1085.42 386.554 1085.42 379.617" stroke="#1C1C1C" stroke-width="4" stroke-miterlimit="10"></path>
<path d="M1093.75 396.684C1091.43 398.416 1088.54 399.44 1085.42 399.44C1082.29 399.44 1079.41 398.416 1077.08 396.684C1082.15 392.73 1085.42 386.563 1085.42 379.626C1085.42 386.555 1088.68 392.73 1093.75 396.684Z" fill="#1C1C1C"></path>
<path d="M735.609 255.078C740.721 255.078 744.864 250.935 744.864 245.823C744.864 240.712 740.721 236.568 735.609 236.568C730.498 236.568 726.354 240.712 726.354 245.823C726.354 250.935 730.498 255.078 735.609 255.078Z" fill="#F8DADC"></path>
<path d="M765.955 331.759C771.066 331.759 775.21 327.616 775.21 322.504C775.21 317.393 771.066 313.249 765.955 313.249C760.844 313.249 756.7 317.393 756.7 322.504C756.7 327.616 760.844 331.759 765.955 331.759Z" fill="#F8DADC"></path>
<path d="M663.109 312.934C668.221 312.934 672.364 308.791 672.364 303.68C672.364 298.568 668.221 294.425 663.109 294.425C657.998 294.425 653.854 298.568 653.854 303.68C653.854 308.791 657.998 312.934 663.109 312.934Z" fill="#F8DADC"></path>
<path d="M837.151 296.454C842.262 296.454 846.406 292.311 846.406 287.199C846.406 282.088 842.262 277.944 837.151 277.944C832.04 277.944 827.896 282.088 827.896 287.199C827.896 292.311 832.04 296.454 837.151 296.454Z" fill="#F8DADC"></path>
<path d="M904.77 248.579C909.881 248.579 914.025 244.435 914.025 239.324C914.025 234.212 909.881 230.069 904.77 230.069C899.658 230.069 895.515 234.212 895.515 239.324C895.515 244.435 899.658 248.579 904.77 248.579Z" fill="#F8DADC"></path>
<path d="M872.203 399.378C877.314 399.378 881.458 395.235 881.458 390.123C881.458 385.012 877.314 380.868 872.203 380.868C867.091 380.868 862.948 385.012 862.948 390.123C862.948 395.235 867.091 399.378 872.203 399.378Z" fill="#F8DADC"></path>
<path d="M949.251 432.89C954.363 432.89 958.506 428.747 958.506 423.635C958.506 418.524 954.363 414.38 949.251 414.38C944.14 414.38 939.997 418.524 939.997 423.635C939.997 428.747 944.14 432.89 949.251 432.89Z" fill="#F8DADC"></path>
<path d="M921.775 322.19C926.887 322.19 931.03 318.046 931.03 312.935C931.03 307.823 926.887 303.68 921.775 303.68C916.664 303.68 912.521 307.823 912.521 312.935C912.521 318.046 916.664 322.19 921.775 322.19Z" fill="#F8DADC"></path>
<path d="M799.799 432.89C804.91 432.89 809.054 428.747 809.054 423.635C809.054 418.524 804.91 414.38 799.799 414.38C794.688 414.38 790.544 418.524 790.544 423.635C790.544 428.747 794.688 432.89 799.799 432.89Z" fill="#F8DADC"></path>
<path d="M726.477 400.577C731.588 400.577 735.732 396.433 735.732 391.322C735.732 386.21 731.588 382.067 726.477 382.067C721.366 382.067 717.222 386.21 717.222 391.322C717.222 396.433 721.366 400.577 726.477 400.577Z" fill="#F8DADC"></path>
<path d="M344.77 148.18H245V494.97H344.77V148.18Z" fill="#3A3158"></path>
<path opacity="0.1" d="M303.815 129.377C273.022 143.134 265.987 154.332 265.797 191.481C265.776 194.661 261.393 195.47 260.248 192.505C246.713 157.906 236.141 149.983 202.457 148.212C199.418 148.056 198.657 143.931 201.438 142.692C232.222 128.937 239.24 117.742 239.437 80.5828C239.458 77.403 243.841 76.5943 244.986 79.5591C258.521 114.158 269.091 122.072 302.777 123.852C305.816 124.008 306.576 128.133 303.796 129.372L303.816 129.386L303.815 129.377Z" fill="#FFFDF8"></path>
<path opacity="0.1" d="M1539.2 595.692C1514.94 590.062 1505.8 593.518 1489.12 615.307C1487.69 617.17 1484.75 615.692 1485.4 613.435C1492.86 587.028 1490.17 577.649 1471.12 561.586C1469.4 560.14 1470.8 557.372 1472.99 557.882C1497.24 563.51 1506.37 560.047 1523.05 538.256C1524.48 536.393 1527.43 537.871 1526.78 540.127C1519.32 566.534 1522.01 575.907 1541.06 591.976C1542.77 593.423 1541.38 596.191 1539.19 595.68L1539.2 595.698L1539.2 595.692Z" fill="#FFFDF8"></path>
<path d="M1033.16 80.2298C1016.49 87.6778 1012.68 93.7404 1012.58 113.853C1012.57 115.575 1010.19 116.012 1009.57 114.407C1002.25 95.6754 996.522 91.3861 978.285 90.4272C976.64 90.3425 976.228 88.1095 977.734 87.4387C994.401 79.9915 998.2 73.9306 998.307 53.8124C998.318 52.0908 1000.69 51.653 1001.31 53.2582C1008.64 71.9901 1014.36 76.2747 1032.6 77.2383C1034.24 77.3229 1034.66 79.556 1033.15 80.2268L1033.16 80.2345L1033.16 80.2298Z" fill="#3C315B"></path>
<path d="M732.589 587.692C718.316 584.735 713.02 586.884 703.567 599.861C702.756 600.971 701.015 600.147 701.363 598.818C705.359 583.267 703.654 577.818 692.291 568.685C691.265 567.863 692.041 566.225 693.329 566.493C707.598 569.448 712.887 567.296 722.346 554.317C723.157 553.207 724.898 554.031 724.55 555.36C720.554 570.911 722.26 576.357 733.622 585.493C734.647 586.315 733.872 587.954 732.584 587.685L732.588 587.696L732.589 587.692Z" fill="#3C315B"></path>
</svg>
