<svg width="1632" height="700" viewBox="0 0 1632 700" fill="none" xmlns="http://www.w3.org/2000/svg">
<g clip-path="url(#clip0_703_37639)">
<rect width="1632" height="700" fill="#2EC08B"></rect>
<path opacity="0.3" d="M809.789 416.66C768.732 593.336 677.734 768.893 527.333 877.306C322.93 1029.21 130.606 890.78 131.645 653.225C127.318 437.03 210.214 220.061 355.36 59.9355C510.807 -124.119 803.692 -212.183 957.949 21.5628C1073.26 -131.013 1318.83 -213.054 1432.14 -14.4406C1649.92 -189.342 1714.41 87.2598 1622.12 253.197C1558.35 408.876 1332.32 513.877 1317.89 272.364C1279.82 412.247 1204.85 555.525 1073.31 628.034C911.413 718.334 802.284 571.995 809.684 416.601C810.255 416.443 810.395 416.316 810.029 416.155C809.958 416.321 809.867 416.521 809.796 416.687L809.789 416.66Z" fill="#FFFDF8"></path>
<ellipse cx="434.114" cy="168.453" rx="46.9706" ry="123.018" transform="rotate(38.2706 434.114 168.453)" fill="#2EC08B"></ellipse>
<ellipse cx="1494.41" cy="230.216" rx="46.9706" ry="88.0448" transform="rotate(38.2706 1494.41 230.216)" fill="#2EC08B"></ellipse>
<rect width="539.025" height="130.016" rx="65.0081" transform="matrix(1 0 0 -1 538.251 403.296)" fill="#1C1C1C"></rect>
<path d="M604.494 356.256C604.489 359.996 606.586 363.031 610.968 363.036C615.349 363.041 617.454 360.012 617.458 356.274C617.383 351.391 616.604 345.974 614.093 341.62L614.107 336.044L614.055 335.997C616.454 329.533 617.497 325.135 617.502 321.395C617.507 317.655 615.411 314.62 611.029 314.616C606.648 314.61 604.543 317.639 604.538 321.378C604.534 325.117 605.572 329.516 607.955 335.984L607.904 336.032L607.89 341.608C607.89 341.608 604.494 347.12 604.494 356.256Z" fill="#FFD13F"></path>
<path d="M590.989 353.812C587.904 350.719 588.767 346.9 591.655 344.019C598.702 336.972 605.347 335.114 605.347 335.114L609.711 339.496C608.123 344.626 604.493 349.352 600.781 353.172C597.894 356.052 594.074 356.904 590.989 353.812Z" fill="#FFD13F"></path>
<path d="M590.989 323.874C587.904 326.966 588.767 330.785 591.655 333.667C598.702 340.714 605.347 342.572 605.347 342.572L609.711 338.189C608.123 333.06 604.493 328.334 600.781 324.514C597.894 321.633 594.074 320.781 590.989 323.874Z" fill="#FFD13F"></path>
<path d="M630.656 353.812C633.742 350.719 632.879 346.9 629.991 344.019C622.943 336.972 616.298 335.114 616.298 335.114L611.934 339.496C613.523 344.626 617.152 349.352 620.865 353.172C623.752 356.052 627.572 356.904 630.656 353.812Z" fill="#FFD13F"></path>
<path d="M630.656 323.874C633.742 326.966 632.879 330.785 629.991 333.667C622.943 340.714 616.298 342.572 616.298 342.572L611.934 338.189C613.523 333.06 617.152 328.334 620.865 324.514C623.752 321.633 627.572 320.781 630.656 323.874Z" fill="#FFD13F"></path>
<path d="M669.932 356.256C669.927 359.996 672.023 363.031 676.405 363.036C680.786 363.041 682.891 360.012 682.896 356.274C682.82 351.391 682.042 345.974 679.531 341.62L679.545 336.044L679.493 335.997C681.892 329.533 682.935 325.135 682.94 321.395C682.945 317.655 680.848 314.62 676.466 314.616C672.085 314.61 669.98 317.639 669.976 321.378C669.972 325.117 671.01 329.516 673.392 335.984L673.341 336.032L673.327 341.608C673.327 341.608 669.932 347.12 669.932 356.256Z" fill="#FFD13F"></path>
<path d="M656.427 353.812C653.341 350.719 654.204 346.9 657.092 344.019C664.14 336.972 670.785 335.114 670.785 335.114L675.149 339.496C673.56 344.626 669.931 349.352 666.218 353.172C663.331 356.052 659.511 356.904 656.427 353.812Z" fill="#FFD13F"></path>
<path d="M656.427 323.874C653.341 326.966 654.204 330.785 657.092 333.667C664.14 340.714 670.785 342.572 670.785 342.572L675.149 338.189C673.56 333.06 669.931 328.334 666.218 324.514C663.331 321.633 659.511 320.781 656.427 323.874Z" fill="#FFD13F"></path>
<path d="M696.094 353.812C699.179 350.719 698.316 346.9 695.428 344.019C688.381 336.972 681.736 335.114 681.736 335.114L677.372 339.496C678.96 344.626 682.59 349.352 686.302 353.172C689.189 356.052 693.009 356.904 696.094 353.812Z" fill="#FFD13F"></path>
<path d="M696.094 323.874C699.179 326.967 698.316 330.786 695.428 333.667C688.381 340.714 681.736 342.572 681.736 342.572L677.372 338.19C678.96 333.06 682.59 328.334 686.302 324.515C689.189 321.634 693.009 320.782 696.094 323.874Z" fill="#FFD13F"></path>
<path d="M735.368 356.256C735.363 359.996 737.46 363.031 741.842 363.036C746.223 363.041 748.328 360.012 748.332 356.274C748.257 351.391 747.478 345.974 744.967 341.62L744.981 336.044L744.929 335.997C747.328 329.533 748.372 325.135 748.376 321.395C748.381 317.655 746.285 314.62 741.903 314.616C737.522 314.61 735.417 317.639 735.412 321.378C735.408 325.117 736.446 329.516 738.829 335.984L738.778 336.032L738.764 341.608C738.764 341.608 735.368 347.12 735.368 356.256Z" fill="#FFD13F"></path>
<path d="M721.865 353.812C718.78 350.719 719.643 346.9 722.531 344.019C729.578 336.972 736.223 335.114 736.223 335.114L740.587 339.496C738.999 344.626 735.369 349.352 731.657 353.172C728.77 356.052 724.95 356.904 721.865 353.812Z" fill="#FFD13F"></path>
<path d="M721.865 323.874C718.78 326.966 719.643 330.785 722.531 333.667C729.578 340.714 736.223 342.572 736.223 342.572L740.587 338.189C738.999 333.06 735.369 328.334 731.657 324.514C728.77 321.633 724.95 320.781 721.865 323.874Z" fill="#FFD13F"></path>
<path d="M761.532 353.812C764.618 350.719 763.755 346.9 760.867 344.019C753.819 336.972 747.174 335.114 747.174 335.114L742.81 339.496C744.399 344.626 748.028 349.352 751.741 353.172C754.628 356.052 758.448 356.904 761.532 353.812Z" fill="#FFD13F"></path>
<path d="M761.532 323.874C764.618 326.967 763.755 330.786 760.867 333.667C753.819 340.714 747.174 342.572 747.174 342.572L742.81 338.19C744.399 333.06 748.028 328.334 751.741 324.515C754.628 321.634 758.448 320.782 761.532 323.874Z" fill="#FFD13F"></path>
<path d="M800.808 356.256C800.803 359.996 802.899 363.031 807.281 363.036C811.662 363.041 813.767 360.012 813.772 356.274C813.696 351.391 812.918 345.974 810.407 341.62L810.421 336.044L810.369 335.997C812.768 329.533 813.811 325.135 813.816 321.395C813.821 317.655 811.724 314.62 807.342 314.616C802.961 314.61 800.856 317.639 800.852 321.378C800.848 325.117 801.886 329.516 804.268 335.984L804.217 336.032L804.203 341.608C804.203 341.608 800.808 347.12 800.808 356.256Z" fill="#FFD13F"></path>
<path d="M787.304 353.812C784.218 350.719 785.081 346.9 787.969 344.019C795.017 336.972 801.662 335.114 801.662 335.114L806.026 339.496C804.437 344.626 800.808 349.352 797.095 353.172C794.208 356.052 790.388 356.904 787.304 353.812Z" fill="#FFD13F"></path>
<path d="M787.304 323.874C784.218 326.966 785.081 330.785 787.969 333.667C795.017 340.714 801.662 342.572 801.662 342.572L806.026 338.189C804.437 333.06 800.808 328.334 797.095 324.514C794.208 321.633 790.388 320.781 787.304 323.874Z" fill="#FFD13F"></path>
<path d="M826.97 353.811C830.055 350.719 829.192 346.9 826.304 344.018C819.257 336.971 812.612 335.113 812.612 335.113L808.248 339.496C809.836 344.625 813.466 349.351 817.178 353.171C820.065 356.052 823.885 356.904 826.97 353.811Z" fill="#FFD13F"></path>
<path d="M826.97 323.873C830.055 326.966 829.192 330.785 826.304 333.666C819.257 340.713 812.612 342.571 812.612 342.571L808.248 338.189C809.836 333.059 813.466 328.333 817.178 324.514C820.065 321.633 823.885 320.781 826.97 323.873Z" fill="#FFD13F"></path>
<path d="M866.245 356.256C866.24 359.996 868.337 363.031 872.719 363.036C877.1 363.041 879.205 360.012 879.209 356.274C879.133 351.391 878.355 345.974 875.844 341.62L875.858 336.044L875.806 335.997C878.205 329.533 879.248 325.135 879.253 321.395C879.258 317.655 877.162 314.62 872.78 314.616C868.399 314.61 866.294 317.639 866.289 321.378C866.285 325.117 867.323 329.516 869.706 335.984L869.655 336.032L869.641 341.608C869.641 341.608 866.245 347.12 866.245 356.256Z" fill="#FFD13F"></path>
<path d="M852.741 353.812C849.656 350.719 850.519 346.9 853.407 344.019C860.454 336.972 867.099 335.114 867.099 335.114L871.463 339.496C869.874 344.626 866.245 349.352 862.533 353.172C859.646 356.052 855.826 356.904 852.741 353.812Z" fill="#FFD13F"></path>
<path d="M852.741 323.874C849.656 326.967 850.519 330.786 853.407 333.667C860.454 340.714 867.099 342.572 867.099 342.572L871.463 338.19C869.874 333.06 866.245 328.334 862.533 324.515C859.646 321.634 855.826 320.782 852.741 323.874Z" fill="#FFD13F"></path>
<path d="M892.408 353.812C895.494 350.719 894.631 346.9 891.743 344.019C884.695 336.972 878.05 335.114 878.05 335.114L873.686 339.496C875.275 344.626 878.904 349.352 882.617 353.172C885.504 356.052 889.324 356.904 892.408 353.812Z" fill="#FFD13F"></path>
<path d="M892.408 323.874C895.494 326.966 894.631 330.785 891.743 333.667C884.695 340.714 878.05 342.572 878.05 342.572L873.686 338.189C875.275 333.06 878.904 328.334 882.617 324.514C885.504 321.633 889.324 320.781 892.408 323.874Z" fill="#FFD13F"></path>
<path d="M931.683 356.256C931.678 359.996 933.774 363.031 938.156 363.036C942.537 363.041 944.642 360.012 944.647 356.274C944.571 351.391 943.793 345.974 941.282 341.62L941.296 336.044L941.244 335.997C943.643 329.533 944.686 325.135 944.691 321.395C944.696 317.655 942.599 314.62 938.217 314.616C933.836 314.61 931.731 317.639 931.727 321.378C931.723 325.117 932.761 329.516 935.143 335.984L935.092 336.032L935.078 341.608C935.078 341.608 931.683 347.12 931.683 356.256Z" fill="#FFD13F"></path>
<path d="M918.18 353.812C915.094 350.72 915.957 346.901 918.845 344.019C925.893 336.972 932.538 335.114 932.538 335.114L936.902 339.497C935.313 344.626 931.684 349.352 927.971 353.172C925.084 356.053 921.264 356.905 918.18 353.812Z" fill="#FFD13F"></path>
<path d="M918.18 323.875C915.094 326.967 915.957 330.786 918.845 333.668C925.893 340.715 932.538 342.573 932.538 342.573L936.902 338.19C935.313 333.061 931.684 328.335 927.971 324.515C925.084 321.634 921.264 320.782 918.18 323.875Z" fill="#FFD13F"></path>
<path d="M957.847 353.812C960.932 350.72 960.069 346.901 957.181 344.019C950.134 336.972 943.489 335.114 943.489 335.114L939.125 339.497C940.713 344.626 944.343 349.352 948.055 353.172C950.942 356.053 954.762 356.905 957.847 353.812Z" fill="#FFD13F"></path>
<path d="M957.847 323.875C960.932 326.967 960.069 330.786 957.181 333.668C950.134 340.715 943.489 342.573 943.489 342.573L939.125 338.19C940.713 333.061 944.343 328.335 948.055 324.515C950.942 321.634 954.762 320.782 957.847 323.875Z" fill="#FFD13F"></path>
<path d="M997.123 356.256C997.118 359.996 999.215 363.031 1003.6 363.036C1007.98 363.041 1010.08 360.012 1010.09 356.274C1010.01 351.391 1009.23 345.974 1006.72 341.62L1006.74 336.044L1006.68 335.997C1009.08 329.533 1010.13 325.135 1010.13 321.395C1010.14 317.655 1008.04 314.62 1003.66 314.616C999.277 314.61 997.172 317.639 997.167 321.378C997.163 325.117 998.201 329.516 1000.58 335.984L1000.53 336.032L1000.52 341.608C1000.52 341.608 997.123 347.12 997.123 356.256Z" fill="#FFD13F"></path>
<path d="M983.618 353.812C980.533 350.719 981.396 346.9 984.284 344.019C991.331 336.972 997.976 335.114 997.976 335.114L1002.34 339.496C1000.75 344.626 997.122 349.352 993.409 353.172C990.523 356.052 986.702 356.904 983.618 353.812Z" fill="#FFD13F"></path>
<path d="M983.618 323.874C980.533 326.967 981.396 330.786 984.284 333.667C991.331 340.714 997.976 342.572 997.976 342.572L1002.34 338.19C1000.75 333.06 997.122 328.334 993.409 324.515C990.523 321.634 986.702 320.782 983.618 323.874Z" fill="#FFD13F"></path>
<path d="M1023.29 353.812C1026.37 350.719 1025.51 346.9 1022.62 344.019C1015.57 336.972 1008.93 335.114 1008.93 335.114L1004.56 339.496C1006.15 344.626 1009.78 349.352 1013.49 353.172C1016.38 356.052 1020.2 356.904 1023.29 353.812Z" fill="#FFD13F"></path>
<path d="M1023.29 323.874C1026.37 326.967 1025.51 330.786 1022.62 333.667C1015.57 340.714 1008.93 342.572 1008.93 342.572L1004.56 338.19C1006.15 333.06 1009.78 328.334 1013.49 324.515C1016.38 321.634 1020.2 320.782 1023.29 323.874Z" fill="#FFD13F"></path>
<circle cx="1030.09" cy="454.107" r="4.76004" transform="rotate(-6.912 1030.09 454.107)" fill="#1C1C1C"></circle>
<circle cx="998.245" cy="464.345" r="3.25706" transform="rotate(-6.912 998.245 464.345)" fill="#1C1C1C"></circle>
<ellipse cx="1051.77" cy="420.077" rx="17.3905" ry="9.41158" transform="rotate(-41.4752 1051.77 420.077)" fill="#1C1C1C"></ellipse>
<path fill-rule="evenodd" clip-rule="evenodd" d="M1114.19 365.839C1120.47 367.778 1123.98 374.441 1122.04 380.721C1111.91 413.535 1087.41 432.946 1064.25 443.751C1059.4 446.012 1054.39 447.998 1049.5 449.724C1044.26 451.574 1042.03 445.479 1046.84 442.712C1048.82 441.577 1050.66 440.471 1052.29 439.429C1061.65 433.431 1069.25 426.06 1071.98 423.856C1083.44 414.6 1093.31 393.1 1099.3 373.699C1101.24 367.419 1107.91 363.9 1114.19 365.839Z" fill="#1C1C1C"></path>
<path fill-rule="evenodd" clip-rule="evenodd" d="M587.854 245.861C585.475 240.461 579.169 238.011 573.768 240.39C545.549 252.82 530.77 276.684 523.528 298.457C522.013 303.013 520.759 307.689 519.726 312.225C518.617 317.089 524.285 318.455 526.255 313.872C527.063 311.993 527.858 310.235 528.619 308.677C539.989 285.401 549.136 273.281 582.383 259.946C587.783 257.568 590.232 251.261 587.854 245.861Z" fill="#1C1C1C"></path>
<rect width="539.025" height="130.016" rx="65.0081" transform="matrix(1 0 0 -1 124 155.016)" fill="#2EC08B"></rect>
<path d="M190.242 107.976C190.237 111.716 192.334 114.751 196.716 114.755C201.097 114.761 203.202 111.732 203.206 107.993C203.131 103.11 202.352 97.6941 199.841 93.3393L199.855 87.7637L199.803 87.7169C202.202 81.2531 203.246 76.855 203.25 73.115C203.255 69.375 201.159 66.3397 196.777 66.3355C192.396 66.3301 190.291 69.3588 190.286 73.0976C190.282 76.8363 191.32 81.2353 193.703 87.7042L193.652 87.7516L193.638 93.3272C193.638 93.3272 190.242 98.8392 190.242 107.976Z" fill="#6DD2AC"></path>
<path d="M176.738 105.531C173.653 102.439 174.516 98.6194 177.404 95.7382C184.451 88.691 191.096 86.8331 191.096 86.8331L195.46 91.2156C193.872 96.3449 190.242 101.071 186.53 104.891C183.643 107.771 179.823 108.623 176.738 105.531Z" fill="#6DD2AC"></path>
<path d="M176.738 75.5932C173.653 78.6853 174.516 82.5046 177.404 85.3858C184.451 92.4331 191.096 94.2909 191.096 94.2909L195.46 89.9084C193.872 84.7791 190.242 80.0529 186.53 76.2333C183.643 73.3525 179.823 72.5006 176.738 75.5932Z" fill="#6DD2AC"></path>
<path d="M216.405 105.531C219.49 102.439 218.627 98.6194 215.739 95.7382C208.692 88.691 202.047 86.8331 202.047 86.8331L197.683 91.2156C199.272 96.3449 202.901 101.071 206.613 104.891C209.5 107.771 213.32 108.623 216.405 105.531Z" fill="#6DD2AC"></path>
<path d="M216.405 75.5932C219.49 78.6853 218.627 82.5046 215.739 85.3858C208.692 92.4331 202.047 94.2909 202.047 94.2909L197.683 89.9084C199.272 84.7791 202.901 80.0529 206.613 76.2333C209.5 73.3525 213.32 72.5006 216.405 75.5932Z" fill="#6DD2AC"></path>
<path d="M255.68 107.976C255.675 111.716 257.772 114.751 262.154 114.755C266.535 114.761 268.64 111.732 268.644 107.993C268.569 103.11 267.79 97.6941 265.279 93.3393L265.293 87.7637L265.241 87.7169C267.64 81.2531 268.684 76.855 268.688 73.115C268.693 69.375 266.597 66.3397 262.215 66.3355C257.834 66.3301 255.729 69.3588 255.724 73.0976C255.72 76.8363 256.758 81.2353 259.141 87.7042L259.09 87.7516L259.076 93.3272C259.076 93.3272 255.68 98.8392 255.68 107.976Z" fill="#6DD2AC"></path>
<path d="M242.176 105.531C239.091 102.439 239.954 98.6194 242.842 95.7382C249.889 88.691 256.534 86.8331 256.534 86.8331L260.898 91.2156C259.31 96.3449 255.68 101.071 251.968 104.891C249.081 107.771 245.261 108.623 242.176 105.531Z" fill="#6DD2AC"></path>
<path d="M242.176 75.5932C239.091 78.6853 239.954 82.5046 242.842 85.3858C249.889 92.4331 256.534 94.2909 256.534 94.2909L260.898 89.9084C259.31 84.7791 255.68 80.0529 251.968 76.2333C249.081 73.3525 245.261 72.5006 242.176 75.5932Z" fill="#6DD2AC"></path>
<path d="M281.842 105.531C284.928 102.439 284.065 98.6194 281.177 95.7382C274.129 88.691 267.484 86.8331 267.484 86.8331L263.12 91.2156C264.709 96.3449 268.338 101.071 272.051 104.891C274.938 107.771 278.758 108.623 281.842 105.531Z" fill="#6DD2AC"></path>
<path d="M281.842 75.5937C284.928 78.6858 284.065 82.5051 281.177 85.3863C274.129 92.4336 267.484 94.2914 267.484 94.2914L263.12 89.9089C264.709 84.7796 268.338 80.0534 272.051 76.2338C274.938 73.353 278.758 72.5011 281.842 75.5937Z" fill="#6DD2AC"></path>
<path d="M321.117 107.976C321.112 111.716 323.209 114.751 327.591 114.755C331.972 114.761 334.077 111.732 334.081 107.993C334.006 103.11 333.227 97.6941 330.716 93.3393L330.73 87.7637L330.678 87.7169C333.077 81.2531 334.121 76.855 334.125 73.115C334.13 69.375 332.034 66.3397 327.652 66.3355C323.271 66.3301 321.166 69.3588 321.161 73.0976C321.157 76.8363 322.195 81.2353 324.578 87.7042L324.527 87.7516L324.513 93.3272C324.513 93.3272 321.117 98.8392 321.117 107.976Z" fill="#6DD2AC"></path>
<path d="M307.614 105.531C304.529 102.439 305.392 98.6194 308.28 95.7382C315.327 88.691 321.972 86.8331 321.972 86.8331L326.336 91.2156C324.748 96.3449 321.118 101.071 317.406 104.891C314.519 107.771 310.699 108.623 307.614 105.531Z" fill="#6DD2AC"></path>
<path d="M307.614 75.5932C304.529 78.6853 305.392 82.5046 308.28 85.3858C315.327 92.4331 321.972 94.2909 321.972 94.2909L326.336 89.9084C324.748 84.7791 321.118 80.0529 317.406 76.2333C314.519 73.3525 310.699 72.5006 307.614 75.5932Z" fill="#6DD2AC"></path>
<path d="M347.281 105.531C350.367 102.439 349.504 98.6194 346.616 95.7382C339.568 88.691 332.923 86.8331 332.923 86.8331L328.559 91.2156C330.148 96.3449 333.777 101.071 337.49 104.891C340.377 107.771 344.197 108.623 347.281 105.531Z" fill="#6DD2AC"></path>
<path d="M347.281 75.5937C350.367 78.6858 349.504 82.5051 346.616 85.3863C339.568 92.4336 332.923 94.2914 332.923 94.2914L328.559 89.9089C330.148 84.7796 333.777 80.0534 337.49 76.2338C340.377 73.353 344.197 72.5011 347.281 75.5937Z" fill="#6DD2AC"></path>
<path d="M386.556 107.976C386.551 111.716 388.648 114.751 393.03 114.755C397.411 114.761 399.516 111.732 399.52 107.993C399.445 103.11 398.666 97.6941 396.155 93.3393L396.169 87.7637L396.117 87.7169C398.516 81.2531 399.56 76.855 399.564 73.115C399.569 69.375 397.473 66.3397 393.091 66.3355C388.71 66.3301 386.605 69.3588 386.6 73.0976C386.596 76.8363 387.634 81.2353 390.017 87.7042L389.966 87.7516L389.952 93.3272C389.952 93.3272 386.556 98.8392 386.556 107.976Z" fill="#6DD2AC"></path>
<path d="M373.052 105.531C369.966 102.439 370.829 98.6194 373.717 95.7382C380.765 88.691 387.41 86.8331 387.41 86.8331L391.774 91.2156C390.185 96.3449 386.556 101.071 382.843 104.891C379.956 107.771 376.136 108.623 373.052 105.531Z" fill="#6DD2AC"></path>
<path d="M373.052 75.5932C369.966 78.6853 370.829 82.5046 373.717 85.3858C380.765 92.4331 387.41 94.2909 387.41 94.2909L391.774 89.9084C390.185 84.7791 386.556 80.0529 382.843 76.2333C379.956 73.3525 376.136 72.5006 373.052 75.5932Z" fill="#6DD2AC"></path>
<path d="M412.718 105.531C415.803 102.439 414.94 98.6194 412.052 95.7382C405.005 88.691 398.36 86.8331 398.36 86.8331L393.996 91.2156C395.584 96.3449 399.214 101.071 402.926 104.891C405.813 107.771 409.633 108.623 412.718 105.531Z" fill="#6DD2AC"></path>
<path d="M412.718 75.5932C415.803 78.6853 414.94 82.5046 412.052 85.3858C405.005 92.4331 398.36 94.2909 398.36 94.2909L393.996 89.9084C395.584 84.7791 399.214 80.0529 402.926 76.2333C405.813 73.3525 409.633 72.5006 412.718 75.5932Z" fill="#6DD2AC"></path>
<path d="M451.994 107.976C451.989 111.716 454.085 114.751 458.467 114.755C462.848 114.761 464.953 111.732 464.958 107.993C464.882 103.11 464.104 97.6941 461.593 93.3393L461.607 87.7637L461.555 87.7169C463.954 81.2531 464.997 76.855 465.002 73.115C465.007 69.375 462.91 66.3397 458.528 66.3355C454.147 66.3301 452.042 69.3588 452.038 73.0976C452.034 76.8363 453.072 81.2353 455.454 87.7042L455.403 87.7516L455.389 93.3272C455.389 93.3272 451.994 98.8392 451.994 107.976Z" fill="#6DD2AC"></path>
<path d="M438.49 105.531C435.404 102.439 436.267 98.6194 439.155 95.7382C446.203 88.691 452.848 86.8331 452.848 86.8331L457.212 91.2156C455.623 96.3449 451.994 101.071 448.281 104.891C445.394 107.771 441.574 108.623 438.49 105.531Z" fill="#6DD2AC"></path>
<path d="M438.49 75.5937C435.404 78.6858 436.267 82.5051 439.155 85.3863C446.203 92.4336 452.848 94.2914 452.848 94.2914L457.212 89.9089C455.623 84.7796 451.994 80.0534 448.281 76.2338C445.394 73.353 441.574 72.5011 438.49 75.5937Z" fill="#6DD2AC"></path>
<path d="M478.157 105.531C481.242 102.439 480.379 98.6194 477.491 95.7382C470.444 88.691 463.799 86.8331 463.799 86.8331L459.435 91.2156C461.023 96.3449 464.653 101.071 468.365 104.891C471.252 107.771 475.072 108.623 478.157 105.531Z" fill="#6DD2AC"></path>
<path d="M478.157 75.5932C481.242 78.6853 480.379 82.5046 477.491 85.3858C470.444 92.4331 463.799 94.2909 463.799 94.2909L459.435 89.9084C461.023 84.7791 464.653 80.0529 468.365 76.2333C471.252 73.3525 475.072 72.5006 478.157 75.5932Z" fill="#6DD2AC"></path>
<path d="M517.431 107.976C517.426 111.716 519.523 114.751 523.905 114.755C528.286 114.761 530.391 111.732 530.395 107.993C530.32 103.11 529.541 97.6941 527.03 93.3393L527.044 87.7637L526.992 87.7169C529.391 81.2531 530.435 76.855 530.439 73.115C530.444 69.375 528.348 66.3397 523.966 66.3355C519.585 66.3301 517.48 69.3588 517.475 73.0976C517.471 76.8363 518.509 81.2353 520.892 87.7042L520.841 87.7516L520.827 93.3272C520.827 93.3272 517.431 98.8392 517.431 107.976Z" fill="#6DD2AC"></path>
<path d="M503.928 105.531C500.842 102.439 501.705 98.6199 504.593 95.7387C511.641 88.6914 518.286 86.8336 518.286 86.8336L522.65 91.2161C521.061 96.3454 517.432 101.072 513.719 104.891C510.832 107.772 507.012 108.624 503.928 105.531Z" fill="#6DD2AC"></path>
<path d="M503.928 75.5942C500.842 78.6863 501.705 82.5056 504.593 85.3868C511.641 92.434 518.286 94.2919 518.286 94.2919L522.65 89.9094C521.061 84.7801 517.432 80.0538 513.719 76.2343C510.832 73.3535 507.012 72.5016 503.928 75.5942Z" fill="#6DD2AC"></path>
<path d="M543.595 105.531C546.68 102.439 545.817 98.6199 542.929 95.7387C535.882 88.6914 529.237 86.8336 529.237 86.8336L524.873 91.2161C526.461 96.3454 530.091 101.072 533.803 104.891C536.69 107.772 540.51 108.624 543.595 105.531Z" fill="#6DD2AC"></path>
<path d="M543.595 75.5942C546.68 78.6863 545.817 82.5056 542.929 85.3868C535.882 92.434 529.237 94.2919 529.237 94.2919L524.873 89.9094C526.461 84.7801 530.091 80.0538 533.803 76.2343C536.69 73.3535 540.51 72.5016 543.595 75.5942Z" fill="#6DD2AC"></path>
<path d="M582.87 107.976C582.865 111.716 584.962 114.751 589.344 114.755C593.725 114.761 595.83 111.732 595.834 107.993C595.758 103.11 594.98 97.6941 592.469 93.3393L592.483 87.7637L592.431 87.7169C594.83 81.2531 595.873 76.855 595.878 73.115C595.883 69.375 593.787 66.3397 589.405 66.3355C585.024 66.3301 582.919 69.3588 582.914 73.0976C582.91 76.8363 583.948 81.2353 586.331 87.7042L586.28 87.7516L586.266 93.3272C586.266 93.3272 582.87 98.8392 582.87 107.976Z" fill="#6DD2AC"></path>
<path d="M569.365 105.531C566.28 102.439 567.143 98.6194 570.031 95.7382C577.078 88.691 583.723 86.8331 583.723 86.8331L588.087 91.2156C586.499 96.3449 582.869 101.071 579.157 104.891C576.27 107.771 572.45 108.623 569.365 105.531Z" fill="#6DD2AC"></path>
<path d="M569.365 75.5937C566.28 78.6858 567.143 82.5051 570.031 85.3863C577.078 92.4336 583.723 94.2914 583.723 94.2914L588.087 89.9089C586.499 84.7796 582.869 80.0534 579.157 76.2338C576.27 73.353 572.45 72.5011 569.365 75.5937Z" fill="#6DD2AC"></path>
<path d="M609.032 105.531C612.118 102.439 611.255 98.6194 608.367 95.7382C601.319 88.691 594.674 86.8331 594.674 86.8331L590.31 91.2156C591.899 96.3449 595.528 101.071 599.241 104.891C602.128 107.771 605.948 108.623 609.032 105.531Z" fill="#6DD2AC"></path>
<path d="M609.032 75.5937C612.118 78.6858 611.255 82.5051 608.367 85.3863C601.319 92.4336 594.674 94.2914 594.674 94.2914L590.31 89.9089C591.899 84.7796 595.528 80.0534 599.241 76.2338C602.128 73.353 605.948 72.5011 609.032 75.5937Z" fill="#6DD2AC"></path>
<rect width="539.025" height="130.016" rx="65.0081" transform="matrix(1 0 0 -1 836 213.016)" fill="#2EC08B"></rect>
<path d="M902.242 165.976C902.237 169.716 904.334 172.751 908.716 172.755C913.097 172.761 915.202 169.732 915.206 165.993C915.131 161.11 914.352 155.694 911.841 151.339L911.855 145.764L911.803 145.717C914.202 139.253 915.246 134.855 915.25 131.115C915.255 127.375 913.159 124.34 908.777 124.336C904.396 124.33 902.291 127.359 902.286 131.098C902.282 134.836 903.32 139.235 905.703 145.704L905.652 145.752L905.638 151.327C905.638 151.327 902.242 156.839 902.242 165.976Z" fill="#6DD2AC"></path>
<path d="M888.738 163.531C885.653 160.439 886.516 156.619 889.404 153.738C896.451 146.691 903.096 144.833 903.096 144.833L907.46 149.216C905.872 154.345 902.242 159.071 898.53 162.891C895.643 165.771 891.823 166.623 888.738 163.531Z" fill="#6DD2AC"></path>
<path d="M888.738 133.593C885.653 136.685 886.516 140.505 889.404 143.386C896.451 150.433 903.096 152.291 903.096 152.291L907.46 147.908C905.872 142.779 902.242 138.053 898.53 134.233C895.643 131.353 891.823 130.501 888.738 133.593Z" fill="#6DD2AC"></path>
<path d="M928.404 163.531C931.49 160.439 930.627 156.619 927.739 153.738C920.691 146.691 914.046 144.833 914.046 144.833L909.682 149.216C911.271 154.345 914.9 159.071 918.613 162.891C921.5 165.771 925.32 166.623 928.404 163.531Z" fill="#6DD2AC"></path>
<path d="M928.404 133.593C931.49 136.685 930.627 140.505 927.739 143.386C920.691 150.433 914.046 152.291 914.046 152.291L909.682 147.908C911.271 142.779 914.9 138.053 918.613 134.233C921.5 131.353 925.32 130.501 928.404 133.593Z" fill="#6DD2AC"></path>
<path d="M967.68 165.976C967.675 169.716 969.772 172.751 974.153 172.755C978.534 172.761 980.639 169.732 980.644 165.993C980.568 161.11 979.79 155.694 977.279 151.339L977.293 145.764L977.241 145.717C979.64 139.253 980.683 134.855 980.688 131.115C980.693 127.375 978.596 124.34 974.215 124.336C969.834 124.33 967.728 127.359 967.724 131.098C967.72 134.836 968.758 139.235 971.14 145.704L971.089 145.752L971.075 151.327C971.075 151.327 967.68 156.839 967.68 165.976Z" fill="#6DD2AC"></path>
<path d="M954.176 163.531C951.09 160.439 951.953 156.619 954.841 153.738C961.889 146.691 968.534 144.833 968.534 144.833L972.898 149.216C971.309 154.345 967.68 159.071 963.967 162.891C961.08 165.771 957.26 166.623 954.176 163.531Z" fill="#6DD2AC"></path>
<path d="M954.176 133.593C951.09 136.685 951.953 140.505 954.841 143.386C961.889 150.433 968.534 152.291 968.534 152.291L972.898 147.908C971.309 142.779 967.68 138.053 963.967 134.233C961.08 131.353 957.26 130.501 954.176 133.593Z" fill="#6DD2AC"></path>
<path d="M993.842 163.531C996.927 160.439 996.064 156.619 993.176 153.738C986.129 146.691 979.484 144.833 979.484 144.833L975.12 149.216C976.709 154.345 980.338 159.071 984.05 162.891C986.937 165.771 990.757 166.623 993.842 163.531Z" fill="#6DD2AC"></path>
<path d="M993.842 133.594C996.927 136.686 996.064 140.505 993.176 143.386C986.129 150.434 979.484 152.291 979.484 152.291L975.12 147.909C976.709 142.78 980.338 138.053 984.05 134.234C986.937 131.353 990.757 130.501 993.842 133.594Z" fill="#6DD2AC"></path>
<path d="M1033.12 165.976C1033.11 169.716 1035.21 172.751 1039.59 172.755C1043.97 172.761 1046.08 169.732 1046.08 165.993C1046.01 161.11 1045.23 155.694 1042.72 151.339L1042.73 145.764L1042.68 145.717C1045.08 139.253 1046.12 134.855 1046.13 131.115C1046.13 127.375 1044.03 124.34 1039.65 124.336C1035.27 124.33 1033.17 127.359 1033.16 131.098C1033.16 134.836 1034.2 139.235 1036.58 145.704L1036.53 145.752L1036.51 151.327C1036.51 151.327 1033.12 156.839 1033.12 165.976Z" fill="#6DD2AC"></path>
<path d="M1019.61 163.531C1016.53 160.439 1017.39 156.619 1020.28 153.738C1027.33 146.691 1033.97 144.833 1033.97 144.833L1038.34 149.216C1036.75 154.345 1033.12 159.071 1029.41 162.891C1026.52 165.771 1022.7 166.623 1019.61 163.531Z" fill="#6DD2AC"></path>
<path d="M1019.61 133.593C1016.53 136.685 1017.39 140.505 1020.28 143.386C1027.33 150.433 1033.97 152.291 1033.97 152.291L1038.34 147.908C1036.75 142.779 1033.12 138.053 1029.41 134.233C1026.52 131.353 1022.7 130.501 1019.61 133.593Z" fill="#6DD2AC"></path>
<path d="M1059.28 163.531C1062.37 160.439 1061.5 156.619 1058.62 153.738C1051.57 146.691 1044.92 144.833 1044.92 144.833L1040.56 149.216C1042.15 154.345 1045.78 159.071 1049.49 162.891C1052.38 165.771 1056.2 166.623 1059.28 163.531Z" fill="#6DD2AC"></path>
<path d="M1059.28 133.594C1062.37 136.686 1061.5 140.505 1058.62 143.386C1051.57 150.434 1044.92 152.291 1044.92 152.291L1040.56 147.909C1042.15 142.78 1045.78 138.053 1049.49 134.234C1052.38 131.353 1056.2 130.501 1059.28 133.594Z" fill="#6DD2AC"></path>
<path d="M1098.56 165.976C1098.55 169.716 1100.65 172.751 1105.03 172.755C1109.41 172.761 1111.52 169.732 1111.52 165.993C1111.44 161.11 1110.67 155.694 1108.15 151.339L1108.17 145.764L1108.12 145.717C1110.52 139.253 1111.56 134.855 1111.56 131.115C1111.57 127.375 1109.47 124.34 1105.09 124.336C1100.71 124.33 1098.6 127.359 1098.6 131.098C1098.6 134.836 1099.63 139.235 1102.02 145.704L1101.97 145.752L1101.95 151.327C1101.95 151.327 1098.56 156.839 1098.56 165.976Z" fill="#6DD2AC"></path>
<path d="M1085.05 163.531C1081.97 160.439 1082.83 156.619 1085.72 153.738C1092.76 146.691 1099.41 144.833 1099.41 144.833L1103.77 149.216C1102.19 154.345 1098.56 159.071 1094.84 162.891C1091.96 165.771 1088.14 166.623 1085.05 163.531Z" fill="#6DD2AC"></path>
<path d="M1085.05 133.593C1081.97 136.685 1082.83 140.505 1085.72 143.386C1092.76 150.433 1099.41 152.291 1099.41 152.291L1103.77 147.908C1102.19 142.779 1098.56 138.053 1094.84 134.233C1091.96 131.353 1088.14 130.501 1085.05 133.593Z" fill="#6DD2AC"></path>
<path d="M1124.72 163.531C1127.8 160.439 1126.94 156.619 1124.05 153.738C1117 146.691 1110.36 144.833 1110.36 144.833L1106 149.216C1107.58 154.345 1111.21 159.071 1114.93 162.891C1117.81 165.771 1121.63 166.623 1124.72 163.531Z" fill="#6DD2AC"></path>
<path d="M1124.72 133.593C1127.8 136.685 1126.94 140.505 1124.05 143.386C1117 150.433 1110.36 152.291 1110.36 152.291L1106 147.908C1107.58 142.779 1111.21 138.053 1114.93 134.233C1117.81 131.353 1121.63 130.501 1124.72 133.593Z" fill="#6DD2AC"></path>
<path d="M1163.99 165.976C1163.99 169.716 1166.09 172.751 1170.47 172.755C1174.85 172.761 1176.95 169.732 1176.96 165.993C1176.88 161.11 1176.1 155.694 1173.59 151.339L1173.61 145.764L1173.55 145.717C1175.95 139.253 1177 134.855 1177 131.115C1177.01 127.375 1174.91 124.34 1170.53 124.336C1166.15 124.33 1164.04 127.359 1164.04 131.098C1164.03 134.836 1165.07 139.235 1167.45 145.704L1167.4 145.752L1167.39 151.327C1167.39 151.327 1163.99 156.839 1163.99 165.976Z" fill="#6DD2AC"></path>
<path d="M1150.49 163.531C1147.4 160.439 1148.27 156.619 1151.15 153.738C1158.2 146.691 1164.85 144.833 1164.85 144.833L1169.21 149.216C1167.62 154.345 1163.99 159.071 1160.28 162.891C1157.39 165.771 1153.57 166.623 1150.49 163.531Z" fill="#6DD2AC"></path>
<path d="M1150.49 133.594C1147.4 136.686 1148.27 140.505 1151.15 143.386C1158.2 150.434 1164.85 152.291 1164.85 152.291L1169.21 147.909C1167.62 142.78 1163.99 138.053 1160.28 134.234C1157.39 131.353 1153.57 130.501 1150.49 133.594Z" fill="#6DD2AC"></path>
<path d="M1190.16 163.531C1193.24 160.439 1192.38 156.619 1189.49 153.738C1182.44 146.691 1175.8 144.833 1175.8 144.833L1171.43 149.216C1173.02 154.345 1176.65 159.071 1180.36 162.891C1183.25 165.771 1187.07 166.623 1190.16 163.531Z" fill="#6DD2AC"></path>
<path d="M1190.16 133.593C1193.24 136.685 1192.38 140.505 1189.49 143.386C1182.44 150.433 1175.8 152.291 1175.8 152.291L1171.43 147.908C1173.02 142.779 1176.65 138.053 1180.36 134.233C1183.25 131.353 1187.07 130.501 1190.16 133.593Z" fill="#6DD2AC"></path>
<path d="M1229.43 165.976C1229.43 169.716 1231.52 172.751 1235.9 172.755C1240.29 172.761 1242.39 169.732 1242.39 165.993C1242.32 161.11 1241.54 155.694 1239.03 151.339L1239.04 145.764L1238.99 145.717C1241.39 139.253 1242.43 134.855 1242.44 131.115C1242.44 127.375 1240.35 124.34 1235.97 124.336C1231.58 124.33 1229.48 127.359 1229.47 131.098C1229.47 134.836 1230.51 139.235 1232.89 145.704L1232.84 145.752L1232.83 151.327C1232.83 151.327 1229.43 156.839 1229.43 165.976Z" fill="#6DD2AC"></path>
<path d="M1215.93 163.531C1212.84 160.439 1213.71 156.62 1216.59 153.739C1223.64 146.691 1230.29 144.834 1230.29 144.834L1234.65 149.216C1233.06 154.345 1229.43 159.072 1225.72 162.891C1222.83 165.772 1219.01 166.624 1215.93 163.531Z" fill="#6DD2AC"></path>
<path d="M1215.93 133.594C1212.84 136.686 1213.71 140.506 1216.59 143.387C1223.64 150.434 1230.29 152.292 1230.29 152.292L1234.65 147.909C1233.06 142.78 1229.43 138.054 1225.72 134.234C1222.83 131.354 1219.01 130.502 1215.93 133.594Z" fill="#6DD2AC"></path>
<path d="M1255.59 163.531C1258.68 160.439 1257.82 156.62 1254.93 153.739C1247.88 146.691 1241.24 144.834 1241.24 144.834L1236.87 149.216C1238.46 154.345 1242.09 159.072 1245.8 162.891C1248.69 165.772 1252.51 166.624 1255.59 163.531Z" fill="#6DD2AC"></path>
<path d="M1255.59 133.594C1258.68 136.686 1257.82 140.506 1254.93 143.387C1247.88 150.434 1241.24 152.292 1241.24 152.292L1236.87 147.909C1238.46 142.78 1242.09 138.054 1245.8 134.234C1248.69 131.354 1252.51 130.502 1255.59 133.594Z" fill="#6DD2AC"></path>
<path d="M1294.87 165.976C1294.87 169.716 1296.96 172.751 1301.34 172.755C1305.72 172.761 1307.83 169.732 1307.83 165.993C1307.76 161.11 1306.98 155.694 1304.47 151.339L1304.48 145.764L1304.43 145.717C1306.83 139.253 1307.87 134.855 1307.88 131.115C1307.88 127.375 1305.79 124.34 1301.4 124.336C1297.02 124.33 1294.92 127.359 1294.91 131.098C1294.91 134.836 1295.95 139.235 1298.33 145.704L1298.28 145.752L1298.27 151.327C1298.27 151.327 1294.87 156.839 1294.87 165.976Z" fill="#6DD2AC"></path>
<path d="M1281.37 163.531C1278.28 160.439 1279.14 156.619 1282.03 153.738C1289.08 146.691 1295.72 144.833 1295.72 144.833L1300.09 149.216C1298.5 154.345 1294.87 159.071 1291.16 162.891C1288.27 165.771 1284.45 166.623 1281.37 163.531Z" fill="#6DD2AC"></path>
<path d="M1281.37 133.594C1278.28 136.686 1279.14 140.505 1282.03 143.386C1289.08 150.434 1295.72 152.291 1295.72 152.291L1300.09 147.909C1298.5 142.78 1294.87 138.053 1291.16 134.234C1288.27 131.353 1284.45 130.501 1281.37 133.594Z" fill="#6DD2AC"></path>
<path d="M1321.03 163.531C1324.12 160.439 1323.25 156.619 1320.37 153.738C1313.32 146.691 1306.67 144.833 1306.67 144.833L1302.31 149.216C1303.9 154.345 1307.53 159.071 1311.24 162.891C1314.13 165.771 1317.95 166.623 1321.03 163.531Z" fill="#6DD2AC"></path>
<path d="M1321.03 133.594C1324.12 136.686 1323.25 140.505 1320.37 143.386C1313.32 150.434 1306.67 152.291 1306.67 152.291L1302.31 147.909C1303.9 142.78 1307.53 138.053 1311.24 134.234C1314.13 131.353 1317.95 130.501 1321.03 133.594Z" fill="#6DD2AC"></path>
<rect width="539.025" height="130.016" rx="65.0081" transform="matrix(1 0 0 -1 150 594.016)" fill="#2EC08B"></rect>
<path d="M216.242 546.976C216.237 550.716 218.334 553.751 222.716 553.755C227.097 553.761 229.202 550.732 229.206 546.993C229.131 542.11 228.352 536.694 225.841 532.339L225.855 526.764L225.803 526.717C228.202 520.253 229.246 515.855 229.25 512.115C229.255 508.375 227.159 505.34 222.777 505.336C218.396 505.33 216.291 508.359 216.286 512.098C216.282 515.836 217.32 520.235 219.703 526.704L219.652 526.752L219.638 532.327C219.638 532.327 216.242 537.839 216.242 546.976Z" fill="#6DD2AC"></path>
<path d="M202.738 544.531C199.653 541.439 200.516 537.619 203.404 534.738C210.451 527.691 217.096 525.833 217.096 525.833L221.46 530.216C219.872 535.345 216.242 540.071 212.53 543.891C209.643 546.771 205.823 547.623 202.738 544.531Z" fill="#6DD2AC"></path>
<path d="M202.738 514.593C199.653 517.685 200.516 521.505 203.404 524.386C210.451 531.433 217.096 533.291 217.096 533.291L221.46 528.908C219.872 523.779 216.242 519.053 212.53 515.233C209.643 512.353 205.823 511.501 202.738 514.593Z" fill="#6DD2AC"></path>
<path d="M242.405 544.531C245.49 541.439 244.627 537.619 241.739 534.738C234.692 527.691 228.047 525.833 228.047 525.833L223.683 530.216C225.272 535.345 228.901 540.071 232.613 543.891C235.5 546.771 239.32 547.623 242.405 544.531Z" fill="#6DD2AC"></path>
<path d="M242.405 514.593C245.49 517.685 244.627 521.505 241.739 524.386C234.692 531.433 228.047 533.291 228.047 533.291L223.683 528.908C225.272 523.779 228.901 519.053 232.613 515.233C235.5 512.353 239.32 511.501 242.405 514.593Z" fill="#6DD2AC"></path>
<path d="M281.68 546.976C281.675 550.716 283.772 553.751 288.154 553.755C292.535 553.761 294.64 550.732 294.644 546.993C294.569 542.11 293.79 536.694 291.279 532.339L291.293 526.764L291.241 526.717C293.64 520.253 294.684 515.855 294.688 512.115C294.693 508.375 292.597 505.34 288.215 505.336C283.834 505.33 281.729 508.359 281.724 512.098C281.72 515.836 282.758 520.235 285.141 526.704L285.09 526.752L285.076 532.327C285.076 532.327 281.68 537.839 281.68 546.976Z" fill="#6DD2AC"></path>
<path d="M268.176 544.531C265.091 541.439 265.954 537.619 268.842 534.738C275.889 527.691 282.534 525.833 282.534 525.833L286.898 530.216C285.31 535.345 281.68 540.071 277.968 543.891C275.081 546.771 271.261 547.623 268.176 544.531Z" fill="#6DD2AC"></path>
<path d="M268.176 514.593C265.091 517.685 265.954 521.505 268.842 524.386C275.889 531.433 282.534 533.291 282.534 533.291L286.898 528.908C285.31 523.779 281.68 519.053 277.968 515.233C275.081 512.353 271.261 511.501 268.176 514.593Z" fill="#6DD2AC"></path>
<path d="M307.842 544.531C310.928 541.439 310.065 537.619 307.177 534.738C300.129 527.691 293.484 525.833 293.484 525.833L289.12 530.216C290.709 535.345 294.338 540.071 298.051 543.891C300.938 546.771 304.758 547.623 307.842 544.531Z" fill="#6DD2AC"></path>
<path d="M307.842 514.594C310.928 517.686 310.065 521.505 307.177 524.386C300.129 531.434 293.484 533.291 293.484 533.291L289.12 528.909C290.709 523.78 294.338 519.053 298.051 515.234C300.938 512.353 304.758 511.501 307.842 514.594Z" fill="#6DD2AC"></path>
<path d="M347.117 546.976C347.112 550.716 349.209 553.751 353.591 553.755C357.972 553.761 360.077 550.732 360.081 546.993C360.006 542.11 359.227 536.694 356.716 532.339L356.73 526.764L356.678 526.717C359.077 520.253 360.121 515.855 360.125 512.115C360.13 508.375 358.034 505.34 353.652 505.336C349.271 505.33 347.166 508.359 347.161 512.098C347.157 515.836 348.195 520.235 350.578 526.704L350.527 526.752L350.513 532.327C350.513 532.327 347.117 537.839 347.117 546.976Z" fill="#6DD2AC"></path>
<path d="M333.614 544.531C330.529 541.439 331.392 537.619 334.28 534.738C341.327 527.691 347.972 525.833 347.972 525.833L352.336 530.216C350.748 535.345 347.118 540.071 343.406 543.891C340.519 546.771 336.699 547.623 333.614 544.531Z" fill="#6DD2AC"></path>
<path d="M333.614 514.593C330.529 517.685 331.392 521.505 334.28 524.386C341.327 531.433 347.972 533.291 347.972 533.291L352.336 528.908C350.748 523.779 347.118 519.053 343.406 515.233C340.519 512.353 336.699 511.501 333.614 514.593Z" fill="#6DD2AC"></path>
<path d="M373.281 544.531C376.367 541.439 375.504 537.619 372.616 534.738C365.568 527.691 358.923 525.833 358.923 525.833L354.559 530.216C356.148 535.345 359.777 540.071 363.49 543.891C366.377 546.771 370.197 547.623 373.281 544.531Z" fill="#6DD2AC"></path>
<path d="M373.281 514.594C376.367 517.686 375.504 521.505 372.616 524.386C365.568 531.434 358.923 533.291 358.923 533.291L354.559 528.909C356.148 523.78 359.777 519.053 363.49 515.234C366.377 512.353 370.197 511.501 373.281 514.594Z" fill="#6DD2AC"></path>
<path d="M412.556 546.976C412.551 550.716 414.648 553.751 419.03 553.755C423.411 553.761 425.516 550.732 425.52 546.993C425.445 542.11 424.666 536.694 422.155 532.339L422.169 526.764L422.117 526.717C424.516 520.253 425.56 515.855 425.564 512.115C425.569 508.375 423.473 505.34 419.091 505.336C414.71 505.33 412.605 508.359 412.6 512.098C412.596 515.836 413.634 520.235 416.017 526.704L415.966 526.752L415.952 532.327C415.952 532.327 412.556 537.839 412.556 546.976Z" fill="#6DD2AC"></path>
<path d="M399.052 544.531C395.966 541.439 396.829 537.619 399.717 534.738C406.765 527.691 413.41 525.833 413.41 525.833L417.774 530.216C416.185 535.345 412.556 540.071 408.843 543.891C405.956 546.771 402.136 547.623 399.052 544.531Z" fill="#6DD2AC"></path>
<path d="M399.052 514.593C395.966 517.685 396.829 521.505 399.717 524.386C406.765 531.433 413.41 533.291 413.41 533.291L417.774 528.908C416.185 523.779 412.556 519.053 408.843 515.233C405.956 512.353 402.136 511.501 399.052 514.593Z" fill="#6DD2AC"></path>
<path d="M438.718 544.531C441.803 541.439 440.94 537.619 438.052 534.738C431.005 527.691 424.36 525.833 424.36 525.833L419.996 530.216C421.584 535.345 425.214 540.071 428.926 543.891C431.813 546.771 435.633 547.623 438.718 544.531Z" fill="#6DD2AC"></path>
<path d="M438.718 514.593C441.803 517.685 440.94 521.505 438.052 524.386C431.005 531.433 424.36 533.291 424.36 533.291L419.996 528.908C421.584 523.779 425.214 519.053 428.926 515.233C431.813 512.353 435.633 511.501 438.718 514.593Z" fill="#6DD2AC"></path>
<path d="M477.994 546.976C477.989 550.716 480.085 553.751 484.467 553.755C488.848 553.761 490.953 550.732 490.958 546.993C490.882 542.11 490.104 536.694 487.593 532.339L487.607 526.764L487.555 526.717C489.954 520.253 490.997 515.855 491.002 512.115C491.007 508.375 488.91 505.34 484.528 505.336C480.147 505.33 478.042 508.359 478.038 512.098C478.034 515.836 479.072 520.235 481.454 526.704L481.403 526.752L481.389 532.327C481.389 532.327 477.994 537.839 477.994 546.976Z" fill="#6DD2AC"></path>
<path d="M464.49 544.531C461.404 541.439 462.267 537.619 465.155 534.738C472.203 527.691 478.848 525.833 478.848 525.833L483.212 530.216C481.623 535.345 477.994 540.071 474.281 543.891C471.394 546.771 467.574 547.623 464.49 544.531Z" fill="#6DD2AC"></path>
<path d="M464.49 514.594C461.404 517.686 462.267 521.505 465.155 524.386C472.203 531.434 478.848 533.291 478.848 533.291L483.212 528.909C481.623 523.78 477.994 519.053 474.281 515.234C471.394 512.353 467.574 511.501 464.49 514.594Z" fill="#6DD2AC"></path>
<path d="M504.157 544.531C507.242 541.439 506.379 537.619 503.491 534.738C496.444 527.691 489.799 525.833 489.799 525.833L485.435 530.216C487.023 535.345 490.653 540.071 494.365 543.891C497.252 546.771 501.072 547.623 504.157 544.531Z" fill="#6DD2AC"></path>
<path d="M504.157 514.593C507.242 517.685 506.379 521.505 503.491 524.386C496.444 531.433 489.799 533.291 489.799 533.291L485.435 528.908C487.023 523.779 490.653 519.053 494.365 515.233C497.252 512.353 501.072 511.501 504.157 514.593Z" fill="#6DD2AC"></path>
<path d="M543.431 546.976C543.426 550.716 545.523 553.751 549.905 553.755C554.286 553.761 556.391 550.732 556.395 546.993C556.32 542.11 555.541 536.694 553.03 532.339L553.044 526.764L552.992 526.717C555.391 520.253 556.435 515.855 556.439 512.115C556.444 508.375 554.348 505.34 549.966 505.336C545.585 505.33 543.48 508.359 543.475 512.098C543.471 515.836 544.509 520.235 546.892 526.704L546.841 526.752L546.827 532.327C546.827 532.327 543.431 537.839 543.431 546.976Z" fill="#6DD2AC"></path>
<path d="M529.928 544.531C526.842 541.439 527.705 537.62 530.593 534.739C537.641 527.691 544.286 525.834 544.286 525.834L548.65 530.216C547.061 535.345 543.432 540.072 539.719 543.891C536.832 546.772 533.012 547.624 529.928 544.531Z" fill="#6DD2AC"></path>
<path d="M529.928 514.594C526.842 517.686 527.705 521.506 530.593 524.387C537.641 531.434 544.286 533.292 544.286 533.292L548.65 528.909C547.061 523.78 543.432 519.054 539.719 515.234C536.832 512.354 533.012 511.502 529.928 514.594Z" fill="#6DD2AC"></path>
<path d="M569.595 544.531C572.68 541.439 571.817 537.62 568.929 534.739C561.882 527.691 555.237 525.834 555.237 525.834L550.873 530.216C552.461 535.345 556.091 540.072 559.803 543.891C562.69 546.772 566.51 547.624 569.595 544.531Z" fill="#6DD2AC"></path>
<path d="M569.595 514.594C572.68 517.686 571.817 521.506 568.929 524.387C561.882 531.434 555.237 533.292 555.237 533.292L550.873 528.909C552.461 523.78 556.091 519.054 559.803 515.234C562.69 512.354 566.51 511.502 569.595 514.594Z" fill="#6DD2AC"></path>
<path d="M608.87 546.976C608.865 550.716 610.962 553.751 615.344 553.755C619.725 553.761 621.83 550.732 621.834 546.993C621.758 542.11 620.98 536.694 618.469 532.339L618.483 526.764L618.431 526.717C620.83 520.253 621.873 515.855 621.878 512.115C621.883 508.375 619.787 505.34 615.405 505.336C611.024 505.33 608.919 508.359 608.914 512.098C608.91 515.836 609.948 520.235 612.331 526.704L612.28 526.752L612.266 532.327C612.266 532.327 608.87 537.839 608.87 546.976Z" fill="#6DD2AC"></path>
<path d="M595.365 544.531C592.28 541.439 593.143 537.619 596.031 534.738C603.078 527.691 609.723 525.833 609.723 525.833L614.087 530.216C612.499 535.345 608.869 540.071 605.157 543.891C602.27 546.771 598.45 547.623 595.365 544.531Z" fill="#6DD2AC"></path>
<path d="M595.365 514.594C592.28 517.686 593.143 521.505 596.031 524.386C603.078 531.434 609.723 533.291 609.723 533.291L614.087 528.909C612.499 523.78 608.869 519.053 605.157 515.234C602.27 512.353 598.45 511.501 595.365 514.594Z" fill="#6DD2AC"></path>
<path d="M635.032 544.531C638.118 541.439 637.255 537.619 634.367 534.738C627.319 527.691 620.674 525.833 620.674 525.833L616.31 530.216C617.899 535.345 621.528 540.071 625.241 543.891C628.128 546.771 631.948 547.623 635.032 544.531Z" fill="#6DD2AC"></path>
<path d="M635.032 514.594C638.118 517.686 637.255 521.505 634.367 524.386C627.319 531.434 620.674 533.291 620.674 533.291L616.31 528.909C617.899 523.78 621.528 519.053 625.241 515.234C628.128 512.353 631.948 511.501 635.032 514.594Z" fill="#6DD2AC"></path>
<rect width="539.025" height="130.016" rx="65.0081" transform="matrix(1 0 0 -1 1016 700.016)" fill="#2EC08B"></rect>
<path d="M1082.24 652.976C1082.24 656.716 1084.33 659.751 1088.72 659.755C1093.1 659.761 1095.2 656.732 1095.21 652.993C1095.13 648.11 1094.35 642.694 1091.84 638.339L1091.86 632.764L1091.8 632.717C1094.2 626.253 1095.25 621.855 1095.25 618.115C1095.26 614.375 1093.16 611.34 1088.78 611.336C1084.4 611.33 1082.29 614.359 1082.29 618.098C1082.28 621.836 1083.32 626.235 1085.7 632.704L1085.65 632.752L1085.64 638.327C1085.64 638.327 1082.24 643.839 1082.24 652.976Z" fill="#6DD2AC"></path>
<path d="M1068.74 650.531C1065.65 647.439 1066.52 643.619 1069.4 640.738C1076.45 633.691 1083.1 631.833 1083.1 631.833L1087.46 636.216C1085.87 641.345 1082.24 646.071 1078.53 649.891C1075.64 652.771 1071.82 653.623 1068.74 650.531Z" fill="#6DD2AC"></path>
<path d="M1068.74 620.593C1065.65 623.685 1066.52 627.505 1069.4 630.386C1076.45 637.433 1083.1 639.291 1083.1 639.291L1087.46 634.908C1085.87 629.779 1082.24 625.053 1078.53 621.233C1075.64 618.353 1071.82 617.501 1068.74 620.593Z" fill="#6DD2AC"></path>
<path d="M1108.4 650.531C1111.49 647.439 1110.63 643.619 1107.74 640.738C1100.69 633.691 1094.05 631.833 1094.05 631.833L1089.68 636.216C1091.27 641.345 1094.9 646.071 1098.61 649.891C1101.5 652.771 1105.32 653.623 1108.4 650.531Z" fill="#6DD2AC"></path>
<path d="M1108.4 620.593C1111.49 623.685 1110.63 627.505 1107.74 630.386C1100.69 637.433 1094.05 639.291 1094.05 639.291L1089.68 634.908C1091.27 629.779 1094.9 625.053 1098.61 621.233C1101.5 618.353 1105.32 617.501 1108.4 620.593Z" fill="#6DD2AC"></path>
<path d="M1147.68 652.976C1147.67 656.716 1149.77 659.751 1154.15 659.755C1158.53 659.761 1160.64 656.732 1160.64 652.993C1160.57 648.11 1159.79 642.694 1157.28 638.339L1157.29 632.764L1157.24 632.717C1159.64 626.253 1160.68 621.855 1160.69 618.115C1160.69 614.375 1158.6 611.34 1154.21 611.336C1149.83 611.33 1147.73 614.359 1147.72 618.098C1147.72 621.836 1148.76 626.235 1151.14 632.704L1151.09 632.752L1151.08 638.327C1151.08 638.327 1147.68 643.839 1147.68 652.976Z" fill="#6DD2AC"></path>
<path d="M1134.18 650.531C1131.09 647.439 1131.95 643.619 1134.84 640.738C1141.89 633.691 1148.53 631.833 1148.53 631.833L1152.9 636.216C1151.31 641.345 1147.68 646.071 1143.97 649.891C1141.08 652.771 1137.26 653.623 1134.18 650.531Z" fill="#6DD2AC"></path>
<path d="M1134.18 620.593C1131.09 623.685 1131.95 627.505 1134.84 630.386C1141.89 637.433 1148.53 639.291 1148.53 639.291L1152.9 634.908C1151.31 629.779 1147.68 625.053 1143.97 621.233C1141.08 618.353 1137.26 617.501 1134.18 620.593Z" fill="#6DD2AC"></path>
<path d="M1173.84 650.531C1176.93 647.439 1176.06 643.619 1173.18 640.738C1166.13 633.691 1159.48 631.833 1159.48 631.833L1155.12 636.216C1156.71 641.345 1160.34 646.071 1164.05 649.891C1166.94 652.771 1170.76 653.623 1173.84 650.531Z" fill="#6DD2AC"></path>
<path d="M1173.84 620.594C1176.93 623.686 1176.06 627.505 1173.18 630.386C1166.13 637.434 1159.48 639.291 1159.48 639.291L1155.12 634.909C1156.71 629.78 1160.34 625.053 1164.05 621.234C1166.94 618.353 1170.76 617.501 1173.84 620.594Z" fill="#6DD2AC"></path>
<path d="M1213.12 652.976C1213.11 656.716 1215.21 659.751 1219.59 659.755C1223.97 659.761 1226.08 656.732 1226.08 652.993C1226.01 648.11 1225.23 642.694 1222.72 638.339L1222.73 632.764L1222.68 632.717C1225.08 626.253 1226.12 621.855 1226.13 618.115C1226.13 614.375 1224.03 611.34 1219.65 611.336C1215.27 611.33 1213.17 614.359 1213.16 618.098C1213.16 621.836 1214.2 626.235 1216.58 632.704L1216.53 632.752L1216.51 638.327C1216.51 638.327 1213.12 643.839 1213.12 652.976Z" fill="#6DD2AC"></path>
<path d="M1199.61 650.531C1196.53 647.439 1197.39 643.619 1200.28 640.738C1207.33 633.691 1213.97 631.833 1213.97 631.833L1218.34 636.216C1216.75 641.345 1213.12 646.071 1209.41 649.891C1206.52 652.771 1202.7 653.623 1199.61 650.531Z" fill="#6DD2AC"></path>
<path d="M1199.61 620.593C1196.53 623.685 1197.39 627.505 1200.28 630.386C1207.33 637.433 1213.97 639.291 1213.97 639.291L1218.34 634.908C1216.75 629.779 1213.12 625.053 1209.41 621.233C1206.52 618.353 1202.7 617.501 1199.61 620.593Z" fill="#6DD2AC"></path>
<path d="M1239.28 650.531C1242.37 647.439 1241.5 643.619 1238.62 640.738C1231.57 633.691 1224.92 631.833 1224.92 631.833L1220.56 636.216C1222.15 641.345 1225.78 646.071 1229.49 649.891C1232.38 652.771 1236.2 653.623 1239.28 650.531Z" fill="#6DD2AC"></path>
<path d="M1239.28 620.594C1242.37 623.686 1241.5 627.505 1238.62 630.386C1231.57 637.434 1224.92 639.291 1224.92 639.291L1220.56 634.909C1222.15 629.78 1225.78 625.053 1229.49 621.234C1232.38 618.353 1236.2 617.501 1239.28 620.594Z" fill="#6DD2AC"></path>
<path d="M1278.56 652.976C1278.55 656.716 1280.65 659.751 1285.03 659.755C1289.41 659.761 1291.52 656.732 1291.52 652.993C1291.44 648.11 1290.67 642.694 1288.15 638.339L1288.17 632.764L1288.12 632.717C1290.52 626.253 1291.56 621.855 1291.56 618.115C1291.57 614.375 1289.47 611.34 1285.09 611.336C1280.71 611.33 1278.6 614.359 1278.6 618.098C1278.6 621.836 1279.63 626.235 1282.02 632.704L1281.97 632.752L1281.95 638.327C1281.95 638.327 1278.56 643.839 1278.56 652.976Z" fill="#6DD2AC"></path>
<path d="M1265.05 650.531C1261.97 647.439 1262.83 643.619 1265.72 640.738C1272.76 633.691 1279.41 631.833 1279.41 631.833L1283.77 636.216C1282.19 641.345 1278.56 646.071 1274.84 649.891C1271.96 652.771 1268.14 653.623 1265.05 650.531Z" fill="#6DD2AC"></path>
<path d="M1265.05 620.593C1261.97 623.685 1262.83 627.505 1265.72 630.386C1272.76 637.433 1279.41 639.291 1279.41 639.291L1283.77 634.908C1282.19 629.779 1278.56 625.053 1274.84 621.233C1271.96 618.353 1268.14 617.501 1265.05 620.593Z" fill="#6DD2AC"></path>
<path d="M1304.72 650.531C1307.8 647.439 1306.94 643.619 1304.05 640.738C1297 633.691 1290.36 631.833 1290.36 631.833L1286 636.216C1287.58 641.345 1291.21 646.071 1294.93 649.891C1297.81 652.771 1301.63 653.623 1304.72 650.531Z" fill="#6DD2AC"></path>
<path d="M1304.72 620.593C1307.8 623.685 1306.94 627.505 1304.05 630.386C1297 637.433 1290.36 639.291 1290.36 639.291L1286 634.908C1287.58 629.779 1291.21 625.053 1294.93 621.233C1297.81 618.353 1301.63 617.501 1304.72 620.593Z" fill="#6DD2AC"></path>
<path d="M1343.99 652.976C1343.99 656.716 1346.09 659.751 1350.47 659.755C1354.85 659.761 1356.95 656.732 1356.96 652.993C1356.88 648.11 1356.1 642.694 1353.59 638.339L1353.61 632.764L1353.55 632.717C1355.95 626.253 1357 621.855 1357 618.115C1357.01 614.375 1354.91 611.34 1350.53 611.336C1346.15 611.33 1344.04 614.359 1344.04 618.098C1344.03 621.836 1345.07 626.235 1347.45 632.704L1347.4 632.752L1347.39 638.327C1347.39 638.327 1343.99 643.839 1343.99 652.976Z" fill="#6DD2AC"></path>
<path d="M1330.49 650.531C1327.4 647.439 1328.27 643.619 1331.15 640.738C1338.2 633.691 1344.85 631.833 1344.85 631.833L1349.21 636.216C1347.62 641.345 1343.99 646.071 1340.28 649.891C1337.39 652.771 1333.57 653.623 1330.49 650.531Z" fill="#6DD2AC"></path>
<path d="M1330.49 620.594C1327.4 623.686 1328.27 627.505 1331.15 630.386C1338.2 637.434 1344.85 639.291 1344.85 639.291L1349.21 634.909C1347.62 629.78 1343.99 625.053 1340.28 621.234C1337.39 618.353 1333.57 617.501 1330.49 620.594Z" fill="#6DD2AC"></path>
<path d="M1370.16 650.531C1373.24 647.439 1372.38 643.619 1369.49 640.738C1362.44 633.691 1355.8 631.833 1355.8 631.833L1351.43 636.216C1353.02 641.345 1356.65 646.071 1360.36 649.891C1363.25 652.771 1367.07 653.623 1370.16 650.531Z" fill="#6DD2AC"></path>
<path d="M1370.16 620.593C1373.24 623.685 1372.38 627.505 1369.49 630.386C1362.44 637.433 1355.8 639.291 1355.8 639.291L1351.43 634.908C1353.02 629.779 1356.65 625.053 1360.36 621.233C1363.25 618.353 1367.07 617.501 1370.16 620.593Z" fill="#6DD2AC"></path>
<path d="M1409.43 652.976C1409.43 656.716 1411.52 659.751 1415.9 659.755C1420.29 659.761 1422.39 656.732 1422.39 652.993C1422.32 648.11 1421.54 642.694 1419.03 638.339L1419.04 632.764L1418.99 632.717C1421.39 626.253 1422.43 621.855 1422.44 618.115C1422.44 614.375 1420.35 611.34 1415.97 611.336C1411.58 611.33 1409.48 614.359 1409.47 618.098C1409.47 621.836 1410.51 626.235 1412.89 632.704L1412.84 632.752L1412.83 638.327C1412.83 638.327 1409.43 643.839 1409.43 652.976Z" fill="#6DD2AC"></path>
<path d="M1395.93 650.531C1392.84 647.439 1393.71 643.62 1396.59 640.739C1403.64 633.691 1410.29 631.834 1410.29 631.834L1414.65 636.216C1413.06 641.345 1409.43 646.072 1405.72 649.891C1402.83 652.772 1399.01 653.624 1395.93 650.531Z" fill="#6DD2AC"></path>
<path d="M1395.93 620.594C1392.84 623.686 1393.71 627.506 1396.59 630.387C1403.64 637.434 1410.29 639.292 1410.29 639.292L1414.65 634.909C1413.06 629.78 1409.43 625.054 1405.72 621.234C1402.83 618.354 1399.01 617.502 1395.93 620.594Z" fill="#6DD2AC"></path>
<path d="M1435.59 650.531C1438.68 647.439 1437.82 643.62 1434.93 640.739C1427.88 633.691 1421.24 631.834 1421.24 631.834L1416.87 636.216C1418.46 641.345 1422.09 646.072 1425.8 649.891C1428.69 652.772 1432.51 653.624 1435.59 650.531Z" fill="#6DD2AC"></path>
<path d="M1435.59 620.594C1438.68 623.686 1437.82 627.506 1434.93 630.387C1427.88 637.434 1421.24 639.292 1421.24 639.292L1416.87 634.909C1418.46 629.78 1422.09 625.054 1425.8 621.234C1428.69 618.354 1432.51 617.502 1435.59 620.594Z" fill="#6DD2AC"></path>
<path d="M1474.87 652.976C1474.87 656.716 1476.96 659.751 1481.34 659.755C1485.72 659.761 1487.83 656.732 1487.83 652.993C1487.76 648.11 1486.98 642.694 1484.47 638.339L1484.48 632.764L1484.43 632.717C1486.83 626.253 1487.87 621.855 1487.88 618.115C1487.88 614.375 1485.79 611.34 1481.4 611.336C1477.02 611.33 1474.92 614.359 1474.91 618.098C1474.91 621.836 1475.95 626.235 1478.33 632.704L1478.28 632.752L1478.27 638.327C1478.27 638.327 1474.87 643.839 1474.87 652.976Z" fill="#6DD2AC"></path>
<path d="M1461.37 650.531C1458.28 647.439 1459.14 643.619 1462.03 640.738C1469.08 633.691 1475.72 631.833 1475.72 631.833L1480.09 636.216C1478.5 641.345 1474.87 646.071 1471.16 649.891C1468.27 652.771 1464.45 653.623 1461.37 650.531Z" fill="#6DD2AC"></path>
<path d="M1461.37 620.594C1458.28 623.686 1459.14 627.505 1462.03 630.386C1469.08 637.434 1475.72 639.291 1475.72 639.291L1480.09 634.909C1478.5 629.78 1474.87 625.053 1471.16 621.234C1468.27 618.353 1464.45 617.501 1461.37 620.594Z" fill="#6DD2AC"></path>
<path d="M1501.03 650.531C1504.12 647.439 1503.25 643.619 1500.37 640.738C1493.32 633.691 1486.67 631.833 1486.67 631.833L1482.31 636.216C1483.9 641.345 1487.53 646.071 1491.24 649.891C1494.13 652.771 1497.95 653.623 1501.03 650.531Z" fill="#6DD2AC"></path>
<path d="M1501.03 620.594C1504.12 623.686 1503.25 627.505 1500.37 630.386C1493.32 637.434 1486.67 639.291 1486.67 639.291L1482.31 634.909C1483.9 629.78 1487.53 625.053 1491.24 621.234C1494.13 618.353 1497.95 617.501 1501.03 620.594Z" fill="#6DD2AC"></path>
</g>
<defs>
<clipPath id="clip0_703_37639">
<rect width="1632" height="700" fill="white"></rect>
</clipPath>
</defs>
</svg>
