<svg xmlns="http://www.w3.org/2000/svg" fill="none" viewBox="0 0 1632 700" height="700" width="1632">
<g clip-path="url(#clip0_1158_125)">
<rect fill="#FFD13F" height="700" width="1632"></rect>
<g opacity="0.25">
<path fill="#FFFDF8" d="M677.396 493.162C675.775 706.322 614.924 933.663 466.253 1103.19C265.447 1338.78 1.9913 1241.17 -59.66 971.301C-122.015 727.327 -81.674 455.486 47.0639 228.899C181.654 -27.9948 503.722 -218.507 747.498 -0.988168C843.094 -209.759 1110.95 -378.798 1297.14 -188.483C1507.63 -454.287 1656.91 -160.391 1592.04 56.4506C1558.06 252.794 1319.31 441.881 1238.36 172.275C1230.5 342.789 1180.01 528.526 1044.1 651.488C877.093 804.026 709.677 671.721 677.246 493.117C677.898 492.782 677.995 492.562 677.543 492.483C677.501 492.703 677.451 492.939 677.409 493.158L677.396 493.162Z"></path>
</g>
<path fill="#FFD13F" d="M461.046 103.982C420.453 147.023 416.589 169.853 441.258 229.951C443.355 235.095 436.818 239.368 432.97 235.368C387.803 188.668 365.364 183.03 309.649 202.937C304.625 204.734 300.613 198.596 304.276 194.715C344.847 151.688 348.689 128.873 324.028 68.7388C321.931 63.5944 328.468 59.3217 332.316 63.3217C377.482 110.021 399.922 115.659 455.636 95.7528C460.66 93.9554 464.672 100.094 461.01 103.974L461.046 103.982Z"></path>
<path fill="#FFD13F" d="M265.047 611.947C229.546 590.199 213.265 590.831 175.433 616.492C172.192 618.678 168.306 614.792 170.506 611.565C196.154 573.72 196.799 557.452 175.051 521.951C173.088 518.75 176.737 515.101 179.938 517.064C215.425 538.799 231.693 538.154 269.552 512.493C272.792 510.306 276.678 514.192 274.478 517.42C248.831 555.265 248.186 571.533 269.934 607.034C271.897 610.235 268.248 613.883 265.047 611.921L265.047 611.947Z"></path>
<path fill="#FFD13F" d="M1398.37 76.353C1377.61 90.3438 1373.89 99.4085 1378.48 126.512C1378.87 128.831 1375.77 129.986 1374.56 127.977C1360.26 104.497 1351.52 100.082 1326.67 103.116C1324.43 103.39 1323.34 100.483 1325.21 99.2221C1345.96 85.2353 1349.67 76.1744 1345.09 49.0567C1344.7 46.738 1347.8 45.5824 1349.01 47.5917C1363.31 71.0715 1372.05 75.4865 1396.9 72.4527C1399.14 72.1782 1400.23 75.0854 1398.36 76.3465L1398.37 76.353Z"></path>
<path fill-opacity="0.25" fill="#FFFDF8" d="M1392.97 442.077C1370.44 462.85 1367.62 474.507 1378.19 506.453C1379.09 509.188 1375.56 511.159 1373.72 508.953C1352.06 483.189 1340.67 479.464 1311.16 487.736C1308.5 488.483 1306.65 485.166 1308.68 483.293C1331.2 462.527 1334.02 450.876 1323.45 418.912C1322.55 416.178 1326.08 414.206 1327.92 416.412C1349.58 442.176 1360.97 445.901 1390.48 437.629C1393.14 436.882 1394.99 440.199 1392.96 442.072L1392.97 442.077Z"></path>
<path fill-opacity="0.25" fill="#FFFDF8" d="M1657.97 229.077C1635.44 249.85 1632.62 261.507 1643.19 293.453C1644.09 296.188 1640.56 298.159 1638.72 295.953C1617.06 270.189 1605.67 266.464 1576.16 274.736C1573.5 275.483 1571.65 272.166 1573.68 270.293C1596.2 249.527 1599.02 237.876 1588.45 205.912C1587.55 203.178 1591.08 201.206 1592.92 203.412C1614.58 229.176 1625.97 232.901 1655.48 224.629C1658.14 223.882 1659.99 227.199 1657.96 229.072L1657.97 229.077Z"></path>
<path fill-opacity="0.25" fill="#FFFDF8" d="M1622.91 728.892C1539.51 725.336 1511.59 742.296 1470.26 824.107C1466.71 831.094 1456.12 828.066 1456.83 820.268C1464.94 728.964 1450.23 699.822 1377.55 658.772C1370.99 655.073 1373.83 645.125 1381.35 645.448C1464.72 648.994 1492.6 632.023 1533.97 550.188C1537.53 543.2 1548.12 546.228 1547.41 554.026C1539.3 645.33 1554.01 674.473 1626.69 715.522C1633.25 719.221 1630.4 729.169 1622.88 728.846L1622.91 728.892Z"></path>
<g clip-path="url(#clip1_1158_125)">
<path fill="#FF7243" d="M930.26 367.934C916.104 335.639 876.196 259.103 816.543 260.525C798.395 216.536 778.058 201.831 768.755 197.169C765.395 195.486 761.301 196.513 759.159 199.595C745.042 219.95 757.815 278.912 757.815 278.912L730.182 292.282C730.182 292.282 689.618 229.898 669.115 246.381C648.611 262.864 668.04 341.755 668.04 341.755C658.12 365.595 642.209 416.601 642.209 416.601C627.152 461.988 645.837 509.027 683.951 521.662C694.598 525.194 705.64 525.661 716.342 523.519C721.677 529.564 727.764 535.261 734.553 540.445C778.208 573.782 838.572 570.748 864.893 537.474C872.924 527.328 882.424 509.936 886.59 499.024C887.104 498.897 887.609 498.771 888.123 498.637C918.831 490.269 938.56 458.812 940.386 421.136C941.271 402.875 937.603 384.685 930.26 367.934Z"></path>
<path fill="#3C315B" d="M794.625 377.598C792.799 377.598 791.036 377.748 789.392 378.016C791.131 378.949 792.206 380.197 792.206 381.564C792.206 384.448 787.503 386.787 781.694 386.787C780.302 386.787 778.975 386.653 777.757 386.408C778.176 390.865 785.559 394.42 794.633 394.42C803.707 394.42 811.548 390.651 811.548 386.013C811.548 381.375 803.975 377.605 794.633 377.605L794.625 377.598Z"></path>
<path fill="#3C315B" d="M861.929 360.482C860.103 360.482 858.34 360.632 856.696 360.901C858.435 361.833 859.51 363.082 859.51 364.449C859.51 367.333 854.807 369.672 848.998 369.672C847.606 369.672 846.279 369.538 845.061 369.293C845.48 373.749 852.863 377.305 861.937 377.305C871.011 377.305 878.852 373.536 878.852 368.898C878.852 364.259 871.279 360.49 861.937 360.49L861.929 360.482Z"></path>
<path fill="#FFFFC4" d="M771.252 363.12C776.779 353.551 776.196 342.871 769.951 339.267C763.705 335.662 754.162 340.497 748.636 350.067C743.109 359.636 743.692 370.316 749.937 373.92C756.183 377.525 765.726 372.69 771.252 363.12Z"></path>
<path fill="#FFFFC4" d="M882.35 319.865C883.001 312.598 875.168 305.958 864.855 305.034C854.542 304.11 845.653 309.253 845.002 316.52C844.351 323.788 852.183 330.428 862.496 331.352C872.81 332.276 881.698 327.133 882.35 319.865Z"></path>
<path fill="#FFFFC4" d="M929.328 370.683C926.822 369.727 924.221 369.214 921.558 369.087C921.542 369.087 921.518 369.087 921.502 369.079C898.359 367.104 861.802 380.995 822.59 403.634C809.777 411.03 801.019 414.601 795.028 416.055C790.523 417.154 785.788 416 782.16 413.116C782.144 413.108 782.128 413.092 782.12 413.084C755.61 392.034 724.444 387.246 710.43 402.859C695.507 419.485 705.695 452.957 733.186 477.618C747.002 490.008 762.558 497.815 776.508 500.407C793.321 508.704 819.57 512.481 848.421 509.423C883.958 505.661 913.456 492.6 925.352 477.112C932.45 469.021 938.702 458.701 943.223 446.825C956.233 412.65 950.013 378.562 929.328 370.691V370.683Z"></path>
<path fill="#3C315B" d="M918.538 390.035C921.487 399.636 916.341 422.661 901.876 427.149C885.823 432.128 863.288 417.478 860.348 407.877C857.4 398.276 868.047 386.503 884.116 381.572C900.185 376.641 915.598 380.434 918.546 390.035H918.538Z"></path>
<path fill="#FFFFC4" d="M707.181 329.239C707.181 329.239 683.745 344.623 678.852 319.796C673.96 294.969 671.549 253.342 690.393 269.091C707.442 283.337 733.067 315.948 707.181 329.239Z"></path>
<path fill="#FFFFC4" d="M792.894 272.899C792.894 272.899 774.754 284.942 769.45 262.177C765.103 243.505 763.024 207.164 777.299 219.096C790.214 229.89 809.437 262.066 792.894 272.891V272.899Z"></path>
<path fill="#FF7243" d="M855.392 225.449C862.446 225.449 868.165 219.732 868.165 212.68C868.165 205.628 862.446 199.911 855.392 199.911C848.338 199.911 842.619 205.628 842.619 212.68C842.619 219.732 848.338 225.449 855.392 225.449Z"></path>
<path fill="#FF7243" d="M867.588 118.586C867.754 116.444 867.501 114.264 866.687 112.28C864.095 105.959 857.012 101.629 848.919 102.024C840.833 102.427 834.217 107.428 832.257 113.963C831.632 116.041 831.601 118.254 831.988 120.395C833.806 130.32 842.99 180.417 843.149 182.788C843.449 187.497 849.061 191.045 853.313 190.839C857.858 190.618 862.869 186.541 862.632 181.831L867.596 118.594L867.588 118.586Z"></path>
<path fill="#FF7243" d="M896.43 234.512C903.485 234.512 909.203 228.795 909.203 221.743C909.203 214.691 903.485 208.974 896.43 208.974C889.376 208.974 883.657 214.691 883.657 221.743C883.657 228.795 889.376 234.512 896.43 234.512Z"></path>
<path fill="#FF7243" d="M952.202 144.978C953.38 143.176 954.194 141.145 954.431 139.004C955.182 132.216 951.04 125.018 943.745 121.502C936.449 117.985 928.252 119.21 923.399 124.006C921.85 125.531 920.767 127.459 920.087 129.522C916.934 139.107 901.007 187.481 900.003 189.638C898.011 193.913 901.236 199.713 905.07 201.57C909.172 203.553 915.519 202.368 917.566 198.117L952.21 144.978H952.202Z"></path>
<path fill="#FF7243" d="M929.43 267.194C936.485 267.194 942.203 261.477 942.203 254.425C942.203 247.373 936.485 241.656 929.43 241.656C922.376 241.656 916.657 247.373 916.657 254.425C916.657 261.477 922.376 267.194 929.43 267.194Z"></path>
<path fill="#FF7243" d="M1013.84 211.06C1015.7 209.985 1017.35 208.539 1018.53 206.738C1022.26 201.017 1021.81 192.728 1016.89 186.296C1011.97 179.864 1004.1 177.264 997.604 179.358C995.533 180.022 993.691 181.255 992.158 182.788C985.02 189.915 948.977 225.907 947.104 227.385C943.397 230.301 943.658 236.938 946.242 240.32C949.009 243.939 955.206 245.741 958.952 242.88L1013.85 211.076L1013.84 211.06Z"></path>
</g>
<path fill="#FFFDF8" d="M664.719 436.381C652.789 459.3 653.884 469.352 671.406 491.666C672.9 493.578 670.662 496.151 668.569 494.929C644.03 480.686 633.93 480.989 612.891 495.989C610.994 497.342 608.578 495.241 609.654 493.174C621.577 470.264 620.474 460.22 602.951 437.89C601.457 435.978 603.695 433.405 605.788 434.627C630.327 448.87 640.427 448.566 661.466 433.567C663.363 432.214 665.78 434.315 664.703 436.382L664.719 436.381Z"></path>
</g>
<defs>
<clipPath id="clip0_1158_125">
<rect fill="white" height="700" width="1632"></rect>
</clipPath>
<clipPath id="clip1_1158_125">
<rect transform="translate(637 102)" fill="white" height="462" width="384"></rect>
</clipPath>
</defs>
</svg>
